G75*
G70*
%OFA0B0*%
%FSLAX24Y24*%
%IPPOS*%
%LPD*%
%AMOC8*
5,1,8,0,0,1.08239X$1,22.5*
%
%ADD10R,0.0472X0.0472*%
%ADD11R,0.0472X0.0315*%
%ADD12C,0.1890*%
%ADD13C,0.1654*%
%ADD14R,0.0866X0.0551*%
%ADD15R,0.0354X0.0551*%
%ADD16R,0.0220X0.0500*%
%ADD17R,0.0500X0.0220*%
%ADD18OC8,0.0740*%
%ADD19R,0.2165X0.0787*%
%ADD20R,0.0315X0.0472*%
%ADD21R,0.0630X0.0315*%
%ADD22R,0.0315X0.0630*%
%ADD23R,0.0472X0.0217*%
%ADD24R,0.1811X0.0394*%
%ADD25R,0.1339X0.0630*%
%ADD26R,0.0117X0.0335*%
%ADD27R,0.0945X0.0650*%
%ADD28R,0.0276X0.0110*%
%ADD29R,0.0512X0.0512*%
%ADD30R,0.0250X0.0500*%
%ADD31R,0.0197X0.0984*%
%ADD32R,0.0787X0.0984*%
%ADD33R,0.0315X0.0354*%
%ADD34C,0.0394*%
%ADD35C,0.1500*%
%ADD36C,0.0360*%
%ADD37C,0.0100*%
%ADD38C,0.0600*%
%ADD39C,0.0160*%
%ADD40C,0.0180*%
%ADD41C,0.0300*%
%ADD42C,0.0240*%
%ADD43C,0.0120*%
%ADD44C,0.0200*%
%ADD45C,0.0110*%
%ADD46C,0.0080*%
D10*
X001101Y005529D03*
X001101Y006356D03*
X008601Y010229D03*
X008601Y011056D03*
X007851Y017479D03*
X007251Y017479D03*
X007251Y018306D03*
X007851Y018306D03*
X010751Y018306D03*
X011351Y018306D03*
X011351Y017479D03*
X010751Y017479D03*
X014251Y017479D03*
X014851Y017479D03*
X014851Y018306D03*
X014251Y018306D03*
X017751Y018306D03*
X018351Y018306D03*
X018351Y017479D03*
X017751Y017479D03*
X004351Y017479D03*
X003741Y017479D03*
X003741Y018306D03*
X004351Y018306D03*
D11*
X005201Y018247D03*
X005201Y017539D03*
X006401Y017539D03*
X006401Y018247D03*
X008701Y018247D03*
X008701Y017539D03*
X009901Y017539D03*
X009901Y018247D03*
X012201Y018197D03*
X012201Y017489D03*
X013401Y017489D03*
X013401Y018197D03*
X015701Y018197D03*
X015701Y017489D03*
X016901Y017489D03*
X016901Y018197D03*
X019201Y018197D03*
X019201Y017489D03*
X017201Y016177D03*
X017201Y015469D03*
X015001Y015797D03*
X015001Y015089D03*
X012401Y014989D03*
X012401Y015697D03*
X010101Y015697D03*
X010101Y014989D03*
X007801Y014989D03*
X007801Y015697D03*
X005501Y015697D03*
X005501Y014989D03*
X003201Y014989D03*
X003201Y015697D03*
X002901Y017539D03*
X002901Y018247D03*
X009231Y011087D03*
X009891Y011067D03*
X009891Y010359D03*
X009231Y010379D03*
X008831Y009587D03*
X008201Y009597D03*
X008201Y008889D03*
X008831Y008879D03*
X001101Y004697D03*
X001101Y003989D03*
X018171Y004007D03*
X018171Y003299D03*
X018171Y002757D03*
X018171Y002049D03*
X021401Y003929D03*
X021401Y004637D03*
X019691Y007059D03*
X019691Y007767D03*
D12*
X009601Y006997D03*
D13*
X011491Y005875D03*
X009601Y004537D03*
D14*
X011875Y010243D03*
X014375Y010243D03*
D15*
X013371Y010243D03*
X010871Y010243D03*
D16*
X015698Y011553D03*
X016013Y011553D03*
X016328Y011553D03*
X016643Y011553D03*
X016958Y011553D03*
X017273Y011553D03*
X017588Y011553D03*
X017903Y011553D03*
X017903Y014933D03*
X017588Y014933D03*
X017273Y014933D03*
X016958Y014933D03*
X016643Y014933D03*
X016328Y014933D03*
X016013Y014933D03*
X015698Y014933D03*
D17*
X015111Y014345D03*
X015111Y014030D03*
X015111Y013715D03*
X015111Y013400D03*
X015111Y013085D03*
X015111Y012770D03*
X015111Y012455D03*
X015111Y012140D03*
X018491Y012140D03*
X018491Y012455D03*
X018491Y012770D03*
X018491Y013085D03*
X018491Y013400D03*
X018491Y013715D03*
X018491Y014030D03*
X018491Y014345D03*
D18*
X020001Y014343D03*
X021001Y014343D03*
X021001Y015343D03*
X020001Y015343D03*
X020001Y013343D03*
X021001Y013343D03*
D19*
X020371Y010243D03*
X016631Y010243D03*
D20*
X015955Y009443D03*
X015246Y009443D03*
X017046Y008943D03*
X017755Y008943D03*
X018868Y008931D03*
X019576Y008931D03*
X020125Y008925D03*
X020834Y008925D03*
X021155Y011543D03*
X020446Y011543D03*
X020625Y005853D03*
X019916Y005853D03*
X020006Y004073D03*
X020715Y004073D03*
X019525Y003253D03*
X018816Y003253D03*
X018816Y002453D03*
X019525Y002453D03*
X017125Y005693D03*
X016416Y005693D03*
X012055Y011893D03*
X012055Y012493D03*
X011346Y012493D03*
X011346Y011893D03*
D21*
X007399Y010741D03*
X007399Y010269D03*
X007399Y009796D03*
X007399Y009324D03*
X007399Y008851D03*
X007399Y008379D03*
X007399Y007907D03*
X007399Y007434D03*
X007399Y006962D03*
X007399Y006489D03*
X007399Y006017D03*
X007399Y005544D03*
X002202Y005544D03*
X002202Y006017D03*
X002202Y006489D03*
X002202Y006962D03*
X002202Y007434D03*
X002202Y007907D03*
X002202Y008379D03*
X002202Y008851D03*
X002202Y009324D03*
X002202Y009796D03*
X002202Y010269D03*
X002202Y010741D03*
D22*
X003178Y011844D03*
X003580Y011844D03*
X004053Y011844D03*
X004525Y011844D03*
X005076Y011844D03*
X005549Y011844D03*
X006021Y011844D03*
X006424Y011844D03*
D23*
X009579Y009287D03*
X009579Y008913D03*
X009579Y008539D03*
X010603Y008539D03*
X010603Y009287D03*
D24*
X012754Y007767D03*
X012754Y006979D03*
D25*
X014801Y006034D03*
X014801Y008711D03*
D26*
X018777Y005634D03*
X018974Y005634D03*
X019171Y005634D03*
X019368Y005634D03*
X019564Y005634D03*
X019564Y004472D03*
X019368Y004472D03*
X019171Y004472D03*
X018974Y004472D03*
X018777Y004472D03*
D27*
X019171Y005053D03*
D28*
X018580Y005151D03*
X018580Y004954D03*
X019761Y004954D03*
X019761Y005151D03*
D29*
X018961Y006643D03*
X017780Y006643D03*
D30*
X014478Y011643D03*
X014124Y011643D03*
X013021Y014243D03*
X012701Y014243D03*
X012381Y014243D03*
X010721Y014243D03*
X010401Y014243D03*
X010081Y014243D03*
X008421Y014243D03*
X008101Y014243D03*
X007781Y014243D03*
X006121Y014243D03*
X005801Y014243D03*
X005481Y014243D03*
X003821Y014243D03*
X003501Y014243D03*
X003181Y014243D03*
D31*
X014271Y004527D03*
X014586Y004527D03*
X014901Y004527D03*
X015216Y004527D03*
X015531Y004527D03*
D32*
X016672Y004527D03*
X016672Y002362D03*
X013129Y002362D03*
X013129Y004527D03*
D33*
X013127Y014949D03*
X013875Y014949D03*
X013501Y015776D03*
X011575Y014949D03*
X010827Y014949D03*
X011201Y015776D03*
X009275Y014949D03*
X008527Y014949D03*
X008901Y015776D03*
X006975Y014949D03*
X006227Y014949D03*
X006601Y015776D03*
X004675Y014949D03*
X003927Y014949D03*
X004301Y015776D03*
D34*
X013701Y013443D03*
X014101Y013843D03*
D35*
X020701Y018343D03*
X020701Y002943D03*
X001401Y002943D03*
X001401Y018343D03*
D36*
X003741Y016933D03*
X004351Y016943D03*
X005801Y017883D03*
X007251Y016943D03*
X007851Y016943D03*
X009301Y017883D03*
X010741Y016943D03*
X011351Y016943D03*
X012801Y017883D03*
X014251Y016933D03*
X014851Y016933D03*
X016301Y017883D03*
X017751Y016933D03*
X018351Y016943D03*
X017731Y016113D03*
X018351Y014823D03*
X019201Y013643D03*
X019101Y013143D03*
X019101Y012643D03*
X019201Y012143D03*
X018461Y011193D03*
X016701Y010943D03*
X016251Y010913D03*
X015401Y011043D03*
X014301Y009343D03*
X013111Y008313D03*
X012301Y009343D03*
X011411Y008213D03*
X010811Y008913D03*
X008911Y008413D03*
X008201Y007743D03*
X008001Y010243D03*
X006601Y010143D03*
X008201Y013193D03*
X008901Y013943D03*
X009301Y014443D03*
X011201Y013943D03*
X011601Y014443D03*
X013501Y014043D03*
X013901Y014443D03*
X014451Y014623D03*
X016011Y015463D03*
X013101Y011943D03*
X010501Y011073D03*
X007001Y014443D03*
X006601Y013943D03*
X005001Y013943D03*
X004701Y014443D03*
X002601Y013543D03*
X002501Y012243D03*
X001501Y007443D03*
X014301Y005343D03*
X015771Y005453D03*
X017421Y004473D03*
X018671Y005053D03*
X019171Y005053D03*
X019671Y005053D03*
X019171Y003753D03*
X021401Y005143D03*
X021071Y005793D03*
X019701Y006543D03*
X020271Y007853D03*
X020101Y008343D03*
X018301Y008943D03*
X017101Y006943D03*
X017901Y005943D03*
X015831Y008793D03*
X020801Y012343D03*
D37*
X020301Y013843D02*
X019701Y013843D01*
X019501Y014043D01*
X018503Y014043D01*
X018491Y014030D01*
X018491Y014345D02*
X019001Y014343D01*
X020001Y015343D01*
X020501Y015643D02*
X020501Y014843D01*
X020001Y014343D01*
X020301Y013843D02*
X020801Y014343D01*
X021001Y014343D01*
X021001Y015343D02*
X021001Y015843D01*
X020801Y016043D01*
X018201Y016043D01*
X017588Y015430D01*
X017239Y015430D01*
X017201Y015469D01*
X016951Y014940D02*
X016958Y014933D01*
X017901Y014935D02*
X017903Y014933D01*
X017901Y014935D02*
X017901Y015343D01*
X018401Y015843D01*
X020301Y015843D01*
X020501Y015643D01*
X012055Y012493D02*
X012055Y011893D01*
X018974Y005634D02*
X018974Y004958D01*
X018971Y004954D01*
X019072Y004954D01*
X019171Y005053D01*
X019269Y005151D01*
X019761Y005151D01*
X019669Y005151D01*
X019571Y005053D01*
X018971Y004954D02*
X018580Y004954D01*
X018580Y005043D01*
X018571Y005053D01*
X018777Y004472D02*
X018290Y004472D01*
X018171Y004353D01*
X018171Y004007D01*
X017701Y003537D01*
X017701Y002143D01*
X017795Y002049D01*
X018171Y002049D01*
X018412Y002049D01*
X018816Y002453D01*
X019171Y002807D01*
X019171Y003753D01*
X019171Y004472D01*
X019368Y004472D02*
X019368Y004056D01*
X019521Y003903D01*
X019521Y003257D01*
X019525Y003253D01*
X019529Y003249D01*
X018821Y003257D02*
X018821Y003903D01*
X018974Y004056D01*
X018974Y004472D01*
X018777Y004472D02*
X018777Y004419D01*
X018821Y003257D02*
X018816Y003253D01*
X018216Y003253D01*
X018216Y002803D01*
X018171Y002757D01*
X018216Y003253D02*
X018171Y003299D01*
D38*
X018471Y005053D02*
X018571Y005053D01*
X018771Y005053D01*
X019571Y005053D02*
X020001Y005053D01*
X020071Y005053D01*
D39*
X000381Y001923D02*
X000381Y019363D01*
X021721Y019363D01*
X021721Y008523D01*
X021064Y008523D01*
X021102Y008544D01*
X021135Y008578D01*
X021159Y008619D01*
X021171Y008665D01*
X021171Y008924D01*
X020834Y008924D01*
X020834Y008925D01*
X020834Y008925D01*
X020834Y009341D01*
X021015Y009341D01*
X021061Y009329D01*
X021102Y009305D01*
X021135Y009271D01*
X021159Y009230D01*
X021171Y009185D01*
X021171Y008925D01*
X020834Y008925D01*
X020834Y009341D01*
X020653Y009341D01*
X020607Y009329D01*
X020566Y009305D01*
X020532Y009271D01*
X020509Y009230D01*
X020496Y009185D01*
X020496Y008925D01*
X020833Y008925D01*
X020833Y008924D01*
X020496Y008924D01*
X020496Y008665D01*
X020509Y008619D01*
X020439Y008619D01*
X020443Y008622D02*
X020443Y009227D01*
X020349Y009321D01*
X019901Y009321D01*
X019854Y009273D01*
X019800Y009327D01*
X019491Y009327D01*
X019056Y009763D01*
X018873Y009763D01*
X017910Y009763D01*
X017781Y009634D01*
X017535Y009388D01*
X017535Y009339D01*
X017531Y009339D01*
X017438Y009245D01*
X017438Y008640D01*
X017531Y008547D01*
X017979Y008547D01*
X018073Y008640D01*
X018073Y008690D01*
X018108Y008655D01*
X018233Y008603D01*
X018368Y008603D01*
X018493Y008655D01*
X018550Y008711D01*
X018550Y008629D01*
X018644Y008535D01*
X019091Y008535D01*
X019185Y008629D01*
X019185Y009011D01*
X019259Y008937D01*
X019259Y008629D01*
X019353Y008535D01*
X019800Y008535D01*
X019848Y008582D01*
X019854Y008576D01*
X019813Y008535D01*
X019761Y008410D01*
X019761Y008275D01*
X019813Y008150D01*
X019858Y008105D01*
X019691Y008105D01*
X019691Y007768D01*
X019691Y007768D01*
X019691Y008105D01*
X019431Y008105D01*
X019385Y008092D01*
X019344Y008069D01*
X019311Y008035D01*
X019287Y007994D01*
X019275Y007948D01*
X019275Y007767D01*
X019275Y007633D01*
X014691Y007633D01*
X014711Y008236D01*
X015537Y008236D01*
X015543Y008243D01*
X019774Y008243D01*
X019813Y008150D01*
X019820Y008143D01*
X014701Y008143D01*
X019820Y008143D01*
X014707Y008143D01*
X014701Y008143D02*
X014701Y008236D01*
X015537Y008236D01*
X015631Y008330D01*
X015631Y009093D01*
X015575Y009149D01*
X015584Y009183D01*
X015584Y009443D01*
X015584Y009689D01*
X015638Y009689D01*
X015638Y009140D01*
X015731Y009047D01*
X016179Y009047D01*
X016273Y009140D01*
X016273Y009574D01*
X016388Y009689D01*
X017780Y009689D01*
X017873Y009783D01*
X017873Y010703D01*
X017780Y010796D01*
X017666Y010796D01*
X017692Y010823D01*
X017821Y010952D01*
X017821Y011012D01*
X018610Y010223D01*
X018792Y010223D01*
X019128Y010223D01*
X019128Y009783D01*
X019222Y009689D01*
X021520Y009689D01*
X021614Y009783D01*
X021614Y010703D01*
X021520Y010796D01*
X020666Y010796D01*
X020666Y011147D01*
X020670Y011147D01*
X020764Y011240D01*
X020764Y011845D01*
X020670Y011939D01*
X020223Y011939D01*
X020129Y011845D01*
X020129Y011240D01*
X020223Y011147D01*
X020226Y011147D01*
X020226Y010796D01*
X019222Y010796D01*
X019128Y010703D01*
X019128Y010663D01*
X018792Y010663D01*
X018173Y011282D01*
X018173Y011869D01*
X018079Y011963D01*
X017727Y011963D01*
X017412Y011963D01*
X017151Y011963D01*
X017138Y011971D01*
X017092Y011983D01*
X016958Y011983D01*
X016903Y011983D01*
X016903Y013428D01*
X017179Y013703D01*
X017199Y013751D01*
X017792Y014344D01*
X017828Y014432D01*
X017828Y014523D01*
X018079Y014523D01*
X018173Y014617D01*
X018173Y015249D01*
X018139Y015284D01*
X018488Y015633D01*
X019541Y015633D01*
X019471Y015562D01*
X019471Y015123D01*
X019478Y015117D01*
X018914Y014553D01*
X018869Y014553D01*
X018807Y014615D01*
X018174Y014615D01*
X018081Y014521D01*
X018081Y014169D01*
X018081Y013854D01*
X018081Y013539D01*
X018081Y013224D01*
X018081Y012909D01*
X018081Y012594D01*
X018081Y012279D01*
X018081Y011964D01*
X018174Y011870D01*
X018807Y011870D01*
X018837Y011900D01*
X018856Y011900D01*
X018857Y011900D01*
X018902Y011900D01*
X018951Y011900D01*
X018952Y011901D01*
X018962Y011901D01*
X019008Y011855D01*
X019133Y011803D01*
X019268Y011803D01*
X019393Y011855D01*
X019489Y011950D01*
X019541Y012075D01*
X019541Y012210D01*
X019489Y012335D01*
X019393Y012431D01*
X019377Y012438D01*
X019389Y012450D01*
X019441Y012575D01*
X019441Y012710D01*
X019389Y012835D01*
X019332Y012893D01*
X019389Y012950D01*
X019441Y013075D01*
X019441Y013210D01*
X019389Y013335D01*
X019377Y013348D01*
X019393Y013355D01*
X019471Y013432D01*
X019471Y013123D01*
X019781Y012813D01*
X020220Y012813D01*
X020487Y013079D01*
X020773Y012793D01*
X020981Y012793D01*
X020981Y013323D01*
X021021Y013323D01*
X021021Y013363D01*
X021551Y013363D01*
X021551Y013571D01*
X021264Y013857D01*
X021531Y014123D01*
X021531Y014562D01*
X021250Y014843D01*
X021531Y015123D01*
X021531Y015562D01*
X021220Y015873D01*
X021211Y015873D01*
X021211Y015930D01*
X021088Y016053D01*
X020888Y016253D01*
X020714Y016253D01*
X018114Y016253D01*
X017991Y016130D01*
X017575Y015714D01*
X017503Y015786D01*
X016925Y015786D01*
X016721Y015990D01*
X016648Y016063D01*
X016552Y016103D01*
X016357Y016103D01*
X016851Y016597D01*
X016935Y016513D01*
X016895Y016502D01*
X016854Y016479D01*
X016821Y016445D01*
X016797Y016404D01*
X016785Y016358D01*
X016785Y016177D01*
X016785Y015996D01*
X016797Y015950D01*
X016821Y015909D01*
X016854Y015876D01*
X016895Y015852D01*
X016941Y015840D01*
X017201Y015840D01*
X017461Y015840D01*
X017506Y015852D01*
X017548Y015876D01*
X017581Y015909D01*
X017605Y015950D01*
X017617Y015996D01*
X017617Y016177D01*
X017201Y016177D01*
X017201Y016177D01*
X017201Y015840D01*
X017201Y016177D01*
X017201Y016177D01*
X017617Y016177D01*
X017617Y016263D01*
X018745Y016263D01*
X018856Y016263D01*
X018959Y016305D01*
X019359Y016705D01*
X019438Y016784D01*
X019481Y016887D01*
X019481Y017171D01*
X019503Y017171D01*
X019597Y017265D01*
X019597Y017712D01*
X019503Y017806D01*
X018898Y017806D01*
X018805Y017712D01*
X018805Y017265D01*
X018898Y017171D01*
X018921Y017171D01*
X018921Y017059D01*
X018685Y016823D01*
X017417Y016823D01*
X017188Y017051D01*
X017188Y017051D01*
X017181Y017059D01*
X017181Y017171D01*
X017203Y017171D01*
X017297Y017265D01*
X017297Y017712D01*
X017203Y017806D01*
X016598Y017806D01*
X016505Y017712D01*
X016505Y017265D01*
X016598Y017171D01*
X016621Y017171D01*
X016621Y017142D01*
X016592Y017130D01*
X015935Y016473D01*
X015627Y016473D01*
X015938Y016784D01*
X015981Y016887D01*
X015981Y016999D01*
X015981Y017171D01*
X016003Y017171D01*
X016097Y017265D01*
X016097Y017712D01*
X016003Y017806D01*
X015398Y017806D01*
X015305Y017712D01*
X015305Y017265D01*
X015398Y017171D01*
X015421Y017171D01*
X015421Y017059D01*
X015185Y016823D01*
X013917Y016823D01*
X013681Y017059D01*
X013681Y017171D01*
X013703Y017171D01*
X013797Y017265D01*
X013797Y017712D01*
X013703Y017806D01*
X013098Y017806D01*
X013005Y017712D01*
X013005Y017265D01*
X013091Y017179D01*
X012335Y016423D01*
X012077Y016423D01*
X012359Y016705D01*
X012438Y016784D01*
X012481Y016887D01*
X012481Y017171D01*
X012503Y017171D01*
X012597Y017265D01*
X012597Y017712D01*
X012503Y017806D01*
X011898Y017806D01*
X011805Y017712D01*
X011805Y017265D01*
X011898Y017171D01*
X011921Y017171D01*
X011921Y017059D01*
X011685Y016823D01*
X010417Y016823D01*
X010181Y017059D01*
X010181Y017221D01*
X010203Y017221D01*
X010297Y017315D01*
X010297Y017762D01*
X010203Y017856D01*
X009598Y017856D01*
X009505Y017762D01*
X009505Y017315D01*
X009598Y017221D01*
X009621Y017221D01*
X009621Y017059D01*
X008742Y016180D01*
X008663Y016101D01*
X008662Y016098D01*
X008583Y016019D01*
X008583Y015671D01*
X008421Y015834D01*
X008292Y015963D01*
X008155Y015963D01*
X008103Y016015D01*
X007498Y016015D01*
X007405Y015921D01*
X007405Y015473D01*
X007498Y015380D01*
X008103Y015380D01*
X008178Y015454D01*
X008307Y015326D01*
X008307Y015286D01*
X008303Y015286D01*
X008209Y015193D01*
X008209Y014891D01*
X008197Y014903D01*
X008197Y015212D01*
X008103Y015306D01*
X007498Y015306D01*
X007405Y015212D01*
X007405Y014765D01*
X007498Y014671D01*
X007807Y014671D01*
X007825Y014653D01*
X007589Y014653D01*
X007496Y014559D01*
X007496Y013927D01*
X007581Y013842D01*
X007581Y013652D01*
X007710Y013523D01*
X007730Y013503D01*
X007872Y013289D01*
X007862Y013263D01*
X007862Y013263D01*
X007836Y013278D01*
X007774Y013263D01*
X004810Y013263D01*
X004681Y013134D01*
X003865Y012319D01*
X003829Y012319D01*
X003826Y012315D01*
X003807Y012326D01*
X003761Y012339D01*
X003580Y012339D01*
X003399Y012339D01*
X003353Y012326D01*
X003340Y012319D01*
X002954Y012319D01*
X002860Y012225D01*
X002860Y011462D01*
X002954Y011369D01*
X003340Y011369D01*
X003353Y011361D01*
X003399Y011349D01*
X003580Y011349D01*
X003580Y011843D01*
X003580Y011843D01*
X003580Y011349D01*
X003761Y011349D01*
X003807Y011361D01*
X003826Y011372D01*
X003829Y011369D01*
X004276Y011369D01*
X004289Y011381D01*
X004301Y011369D01*
X004749Y011369D01*
X004801Y011421D01*
X004853Y011369D01*
X005300Y011369D01*
X005313Y011381D01*
X005325Y011369D01*
X005773Y011369D01*
X005776Y011372D01*
X005794Y011361D01*
X005840Y011349D01*
X006021Y011349D01*
X006021Y011843D01*
X006021Y011843D01*
X006021Y011349D01*
X006202Y011349D01*
X006248Y011361D01*
X006262Y011369D01*
X006416Y011369D01*
X006008Y010961D01*
X002677Y010961D01*
X002677Y010965D01*
X002584Y011059D01*
X001821Y011059D01*
X001727Y010965D01*
X001727Y010517D01*
X001740Y010505D01*
X001727Y010493D01*
X001727Y010045D01*
X001740Y010033D01*
X001727Y010020D01*
X001727Y009573D01*
X001740Y009560D01*
X001727Y009548D01*
X001727Y009100D01*
X001740Y009088D01*
X001727Y009075D01*
X001727Y008628D01*
X001740Y008615D01*
X001727Y008603D01*
X001727Y008155D01*
X001740Y008143D01*
X001727Y008130D01*
X001727Y008127D01*
X001628Y008127D01*
X001421Y008334D01*
X001421Y012464D01*
X002261Y013484D01*
X002261Y013475D01*
X002313Y013350D01*
X002408Y013255D01*
X002533Y013203D01*
X002668Y013203D01*
X002793Y013255D01*
X002862Y013323D01*
X005110Y013323D01*
X005292Y013323D01*
X005592Y013623D01*
X005721Y013752D01*
X005721Y013833D01*
X005992Y013833D01*
X006278Y013833D01*
X006313Y013750D01*
X006408Y013655D01*
X006533Y013603D01*
X006668Y013603D01*
X006793Y013655D01*
X006889Y013750D01*
X006941Y013875D01*
X006941Y014010D01*
X006896Y014118D01*
X006933Y014103D01*
X007068Y014103D01*
X007193Y014155D01*
X007289Y014250D01*
X007341Y014375D01*
X007341Y014510D01*
X007289Y014635D01*
X007281Y014644D01*
X007281Y014694D01*
X007292Y014706D01*
X007292Y015193D01*
X007199Y015286D01*
X006751Y015286D01*
X006657Y015193D01*
X006657Y014706D01*
X006720Y014643D01*
X006713Y014635D01*
X006661Y014510D01*
X006661Y014375D01*
X006705Y014267D01*
X006668Y014283D01*
X006572Y014283D01*
X006406Y014449D01*
X006406Y014559D01*
X006353Y014612D01*
X006451Y014612D01*
X006544Y014706D01*
X006544Y015193D01*
X006451Y015286D01*
X006447Y015286D01*
X006447Y015326D01*
X006447Y015439D01*
X006825Y015439D01*
X006918Y015532D01*
X006918Y016019D01*
X006881Y016057D01*
X006881Y016263D01*
X008245Y016263D01*
X008356Y016263D01*
X008459Y016305D01*
X008859Y016705D01*
X008938Y016784D01*
X008981Y016887D01*
X008981Y017221D01*
X009003Y017221D01*
X009097Y017315D01*
X009097Y017762D01*
X009003Y017856D01*
X008398Y017856D01*
X008305Y017762D01*
X008305Y017315D01*
X008398Y017221D01*
X008421Y017221D01*
X008421Y017059D01*
X008185Y016823D01*
X006917Y016823D01*
X006681Y017059D01*
X006681Y017221D01*
X006703Y017221D01*
X006797Y017315D01*
X006797Y017762D01*
X006703Y017856D01*
X006098Y017856D01*
X006005Y017762D01*
X006005Y017315D01*
X006098Y017221D01*
X006121Y017221D01*
X006121Y016999D01*
X006121Y016887D01*
X006163Y016784D01*
X006329Y016619D01*
X006321Y016599D01*
X006321Y016057D01*
X006283Y016019D01*
X006283Y015671D01*
X006121Y015834D01*
X005992Y015963D01*
X005855Y015963D01*
X005803Y016015D01*
X005198Y016015D01*
X005105Y015921D01*
X005105Y015473D01*
X005198Y015380D01*
X005803Y015380D01*
X005878Y015454D01*
X006007Y015326D01*
X006007Y015286D01*
X006003Y015286D01*
X005909Y015193D01*
X005909Y014891D01*
X005897Y014903D01*
X005897Y015212D01*
X005803Y015306D01*
X005198Y015306D01*
X005105Y015212D01*
X005105Y014765D01*
X005198Y014671D01*
X005507Y014671D01*
X005525Y014653D01*
X005289Y014653D01*
X005196Y014559D01*
X005196Y014229D01*
X005193Y014231D01*
X005068Y014283D01*
X005002Y014283D01*
X005041Y014375D01*
X005041Y014510D01*
X004989Y014635D01*
X004955Y014669D01*
X004992Y014706D01*
X004992Y015193D01*
X004899Y015286D01*
X004451Y015286D01*
X004357Y015193D01*
X004357Y014706D01*
X004395Y014668D01*
X004395Y014593D01*
X004361Y014510D01*
X004361Y014375D01*
X004413Y014250D01*
X004500Y014163D01*
X004392Y014163D01*
X004221Y014334D01*
X004106Y014449D01*
X004106Y014559D01*
X004053Y014612D01*
X004151Y014612D01*
X004244Y014706D01*
X004244Y015193D01*
X004151Y015286D01*
X004147Y015286D01*
X004147Y015326D01*
X004147Y015439D01*
X004525Y015439D01*
X004618Y015532D01*
X004618Y016019D01*
X004581Y016057D01*
X004581Y016263D01*
X004745Y016263D01*
X004856Y016263D01*
X004959Y016305D01*
X005359Y016705D01*
X005438Y016784D01*
X005481Y016887D01*
X005481Y017221D01*
X005503Y017221D01*
X005597Y017315D01*
X005597Y017762D01*
X005503Y017856D01*
X004898Y017856D01*
X004805Y017762D01*
X004805Y017315D01*
X004898Y017221D01*
X004921Y017221D01*
X004921Y017059D01*
X004685Y016823D01*
X004356Y016823D01*
X004245Y016823D01*
X003417Y016823D01*
X003181Y017059D01*
X003181Y017221D01*
X003203Y017221D01*
X003297Y017315D01*
X003297Y017762D01*
X003203Y017856D01*
X002598Y017856D01*
X002505Y017762D01*
X002505Y017315D01*
X002598Y017221D01*
X002621Y017221D01*
X002621Y016887D01*
X002663Y016784D01*
X002742Y016705D01*
X002742Y016705D01*
X003063Y016384D01*
X003142Y016305D01*
X003245Y016263D01*
X004021Y016263D01*
X004021Y016057D01*
X003983Y016019D01*
X003983Y015671D01*
X003821Y015834D01*
X003692Y015963D01*
X003555Y015963D01*
X003503Y016015D01*
X002898Y016015D01*
X002805Y015921D01*
X002805Y015473D01*
X002898Y015380D01*
X003503Y015380D01*
X003578Y015454D01*
X003707Y015326D01*
X003707Y015286D01*
X003703Y015286D01*
X003609Y015193D01*
X003609Y014891D01*
X003597Y014903D01*
X003597Y015212D01*
X003503Y015306D01*
X002898Y015306D01*
X002805Y015212D01*
X002805Y014765D01*
X002898Y014671D01*
X003207Y014671D01*
X003225Y014653D01*
X002989Y014653D01*
X002896Y014559D01*
X002896Y014463D01*
X002680Y014463D01*
X002670Y014471D01*
X002590Y014463D01*
X002510Y014463D01*
X002501Y014454D01*
X002489Y014453D01*
X002438Y014391D01*
X002381Y014334D01*
X002381Y014322D01*
X001038Y012691D01*
X000981Y012634D01*
X000981Y012622D01*
X000973Y012612D01*
X000981Y012532D01*
X000981Y008152D01*
X001110Y008023D01*
X001374Y007758D01*
X001308Y007731D01*
X001213Y007635D01*
X001161Y007510D01*
X001161Y007375D01*
X001213Y007250D01*
X001308Y007155D01*
X001425Y007106D01*
X001071Y006752D01*
X000798Y006752D01*
X000705Y006659D01*
X000705Y006054D01*
X000798Y005960D01*
X001403Y005960D01*
X001497Y006054D01*
X001497Y006500D01*
X001719Y006722D01*
X001736Y006722D01*
X001727Y006713D01*
X001727Y006266D01*
X001740Y006253D01*
X001727Y006241D01*
X001497Y006241D01*
X001497Y006399D02*
X001727Y006399D01*
X001727Y006241D02*
X001727Y005793D01*
X001740Y005781D01*
X001727Y005768D01*
X001727Y005321D01*
X001794Y005254D01*
X001579Y005254D01*
X001532Y005207D01*
X001532Y001923D01*
X000381Y001923D01*
X000381Y001960D02*
X001532Y001960D01*
X001532Y002118D02*
X000381Y002118D01*
X000381Y002277D02*
X001532Y002277D01*
X001532Y002436D02*
X000381Y002436D01*
X000381Y002594D02*
X001532Y002594D01*
X001532Y002753D02*
X000381Y002753D01*
X000381Y002911D02*
X001532Y002911D01*
X001532Y003070D02*
X000381Y003070D01*
X000381Y003228D02*
X001532Y003228D01*
X001532Y003387D02*
X000381Y003387D01*
X000381Y003545D02*
X001532Y003545D01*
X001532Y003704D02*
X001464Y003704D01*
X001481Y003720D02*
X001505Y003762D01*
X001517Y003807D01*
X001517Y003988D01*
X001101Y003988D01*
X001101Y003651D01*
X001361Y003651D01*
X001406Y003663D01*
X001448Y003687D01*
X001481Y003720D01*
X001517Y003862D02*
X001532Y003862D01*
X001517Y003989D02*
X001517Y004170D01*
X001505Y004215D01*
X001481Y004256D01*
X001448Y004290D01*
X001406Y004314D01*
X001361Y004326D01*
X001101Y004326D01*
X001101Y003989D01*
X001101Y003989D01*
X001517Y003989D01*
X001517Y004021D02*
X001532Y004021D01*
X001532Y004180D02*
X001514Y004180D01*
X001532Y004338D02*
X000381Y004338D01*
X000381Y004180D02*
X000687Y004180D01*
X000685Y004170D02*
X000685Y003989D01*
X001100Y003989D01*
X001100Y003988D01*
X000685Y003988D01*
X000685Y003807D01*
X000697Y003762D01*
X000721Y003720D01*
X000754Y003687D01*
X000795Y003663D01*
X000841Y003651D01*
X001101Y003651D01*
X001101Y003988D01*
X001101Y003988D01*
X001101Y003989D01*
X001101Y004326D01*
X000841Y004326D01*
X000795Y004314D01*
X000754Y004290D01*
X000721Y004256D01*
X000697Y004215D01*
X000685Y004170D01*
X000685Y004021D02*
X000381Y004021D01*
X000381Y003862D02*
X000685Y003862D01*
X000737Y003704D02*
X000381Y003704D01*
X001101Y003704D02*
X001101Y003704D01*
X001101Y003862D02*
X001101Y003862D01*
X001101Y004021D02*
X001101Y004021D01*
X001101Y004180D02*
X001101Y004180D01*
X001403Y004380D02*
X000798Y004380D01*
X000705Y004473D01*
X000705Y004921D01*
X000798Y005015D01*
X000861Y005015D01*
X000861Y005133D01*
X000798Y005133D01*
X000705Y005227D01*
X000705Y005832D01*
X000798Y005926D01*
X001403Y005926D01*
X001497Y005832D01*
X001497Y005227D01*
X001403Y005133D01*
X001341Y005133D01*
X001341Y005015D01*
X001403Y005015D01*
X001497Y004921D01*
X001497Y004473D01*
X001403Y004380D01*
X001497Y004497D02*
X001532Y004497D01*
X001532Y004655D02*
X001497Y004655D01*
X001497Y004814D02*
X001532Y004814D01*
X001532Y004972D02*
X001446Y004972D01*
X001532Y005131D02*
X001341Y005131D01*
X001497Y005289D02*
X001759Y005289D01*
X001727Y005448D02*
X001497Y005448D01*
X001497Y005606D02*
X001727Y005606D01*
X001727Y005765D02*
X001497Y005765D01*
X001405Y005924D02*
X001727Y005924D01*
X001727Y006082D02*
X001497Y006082D01*
X001101Y006356D02*
X001101Y006443D01*
X001620Y006962D01*
X002202Y006962D01*
X001731Y006716D02*
X001714Y006716D01*
X001727Y006558D02*
X001555Y006558D01*
X001193Y006875D02*
X000381Y006875D01*
X000381Y007033D02*
X001352Y007033D01*
X001271Y007192D02*
X000381Y007192D01*
X000381Y007350D02*
X001171Y007350D01*
X001161Y007509D02*
X000381Y007509D01*
X000381Y007667D02*
X001245Y007667D01*
X001306Y007826D02*
X000381Y007826D01*
X000381Y007985D02*
X001148Y007985D01*
X000989Y008143D02*
X000381Y008143D01*
X000381Y008302D02*
X000981Y008302D01*
X000981Y008460D02*
X000381Y008460D01*
X000381Y008619D02*
X000981Y008619D01*
X000981Y008777D02*
X000381Y008777D01*
X000381Y008936D02*
X000981Y008936D01*
X000981Y009094D02*
X000381Y009094D01*
X000381Y009253D02*
X000981Y009253D01*
X000981Y009411D02*
X000381Y009411D01*
X000381Y009570D02*
X000981Y009570D01*
X000981Y009729D02*
X000381Y009729D01*
X000381Y009887D02*
X000981Y009887D01*
X000981Y010046D02*
X000381Y010046D01*
X000381Y010204D02*
X000981Y010204D01*
X000981Y010363D02*
X000381Y010363D01*
X000381Y010521D02*
X000981Y010521D01*
X000981Y010680D02*
X000381Y010680D01*
X000381Y010838D02*
X000981Y010838D01*
X000981Y010997D02*
X000381Y010997D01*
X000381Y011155D02*
X000981Y011155D01*
X000981Y011314D02*
X000381Y011314D01*
X000381Y011473D02*
X000981Y011473D01*
X000981Y011631D02*
X000381Y011631D01*
X000381Y011790D02*
X000981Y011790D01*
X000981Y011948D02*
X000381Y011948D01*
X000381Y012107D02*
X000981Y012107D01*
X000981Y012265D02*
X000381Y012265D01*
X000381Y012424D02*
X000981Y012424D01*
X000976Y012582D02*
X000381Y012582D01*
X000381Y012741D02*
X001079Y012741D01*
X001209Y012899D02*
X000381Y012899D01*
X000381Y013058D02*
X001340Y013058D01*
X001471Y013216D02*
X000381Y013216D01*
X000381Y013375D02*
X001601Y013375D01*
X001732Y013534D02*
X000381Y013534D01*
X000381Y013692D02*
X001862Y013692D01*
X001993Y013851D02*
X000381Y013851D01*
X000381Y014009D02*
X002123Y014009D01*
X002254Y014168D02*
X000381Y014168D01*
X000381Y014326D02*
X002381Y014326D01*
X002805Y014802D02*
X000381Y014802D01*
X000381Y014960D02*
X002805Y014960D01*
X002805Y015119D02*
X000381Y015119D01*
X000381Y015278D02*
X002870Y015278D01*
X002842Y015436D02*
X000381Y015436D01*
X000381Y015595D02*
X002805Y015595D01*
X002805Y015753D02*
X000381Y015753D01*
X000381Y015912D02*
X002805Y015912D01*
X003060Y016387D02*
X000381Y016387D01*
X000381Y016229D02*
X004021Y016229D01*
X004021Y016070D02*
X000381Y016070D01*
X000381Y016546D02*
X002902Y016546D01*
X002743Y016704D02*
X000381Y016704D01*
X000381Y016863D02*
X002631Y016863D01*
X002621Y017022D02*
X000381Y017022D01*
X000381Y017180D02*
X002621Y017180D01*
X002505Y017339D02*
X000381Y017339D01*
X000381Y017497D02*
X002505Y017497D01*
X002505Y017656D02*
X000381Y017656D01*
X000381Y017814D02*
X002557Y017814D01*
X002598Y017930D02*
X003203Y017930D01*
X003241Y017967D01*
X003381Y017967D01*
X003438Y017910D01*
X004043Y017910D01*
X004046Y017913D01*
X004048Y017910D01*
X004653Y017910D01*
X004710Y017967D01*
X004861Y017967D01*
X004898Y017930D01*
X005503Y017930D01*
X005597Y018023D01*
X005597Y018471D01*
X005503Y018565D01*
X004898Y018565D01*
X004861Y018527D01*
X004747Y018527D01*
X004747Y018609D01*
X004653Y018702D01*
X004048Y018702D01*
X004046Y018700D01*
X004043Y018702D01*
X003438Y018702D01*
X003345Y018609D01*
X003345Y018527D01*
X003241Y018527D01*
X003203Y018565D01*
X002598Y018565D01*
X002505Y018471D01*
X002505Y018023D01*
X002598Y017930D01*
X002555Y017973D02*
X000381Y017973D01*
X000381Y018131D02*
X002505Y018131D01*
X002505Y018290D02*
X000381Y018290D01*
X000381Y018448D02*
X002505Y018448D01*
X003245Y017814D02*
X003354Y017814D01*
X003361Y017826D02*
X003337Y017785D01*
X003325Y017739D01*
X003325Y017518D01*
X003702Y017518D01*
X003702Y017441D01*
X003325Y017441D01*
X003325Y017219D01*
X003337Y017174D01*
X003361Y017133D01*
X003394Y017099D01*
X003435Y017076D01*
X003481Y017063D01*
X003703Y017063D01*
X003703Y017441D01*
X003779Y017441D01*
X003779Y017063D01*
X004001Y017063D01*
X004046Y017075D01*
X004091Y017063D01*
X004313Y017063D01*
X004313Y017441D01*
X004389Y017441D01*
X004389Y017063D01*
X004611Y017063D01*
X004656Y017076D01*
X004698Y017099D01*
X004731Y017133D01*
X004755Y017174D01*
X004767Y017219D01*
X004767Y017441D01*
X004389Y017441D01*
X004389Y017518D01*
X004313Y017518D01*
X004313Y017896D01*
X004091Y017896D01*
X004046Y017884D01*
X004001Y017896D01*
X003779Y017896D01*
X003779Y017518D01*
X003703Y017518D01*
X003703Y017896D01*
X003481Y017896D01*
X003435Y017883D01*
X003394Y017860D01*
X003361Y017826D01*
X003325Y017656D02*
X003297Y017656D01*
X003297Y017497D02*
X003702Y017497D01*
X003779Y017497D02*
X004312Y017497D01*
X004312Y017518D02*
X004312Y017441D01*
X003935Y017441D01*
X003779Y017441D01*
X003779Y017518D01*
X003935Y017518D01*
X004312Y017518D01*
X004389Y017518D02*
X004389Y017896D01*
X004611Y017896D01*
X004656Y017883D01*
X004698Y017860D01*
X004731Y017826D01*
X004755Y017785D01*
X004767Y017739D01*
X004767Y017518D01*
X004389Y017518D01*
X004389Y017497D02*
X004805Y017497D01*
X004805Y017339D02*
X004767Y017339D01*
X004756Y017180D02*
X004921Y017180D01*
X004884Y017022D02*
X003218Y017022D01*
X003181Y017180D02*
X003335Y017180D01*
X003325Y017339D02*
X003297Y017339D01*
X003703Y017339D02*
X003779Y017339D01*
X003779Y017180D02*
X003703Y017180D01*
X003377Y016863D02*
X004725Y016863D01*
X004389Y017180D02*
X004313Y017180D01*
X004313Y017339D02*
X004389Y017339D01*
X004389Y017656D02*
X004313Y017656D01*
X004313Y017814D02*
X004389Y017814D01*
X004738Y017814D02*
X004857Y017814D01*
X004805Y017656D02*
X004767Y017656D01*
X005481Y017180D02*
X006121Y017180D01*
X006121Y017022D02*
X005481Y017022D01*
X005471Y016863D02*
X006131Y016863D01*
X006243Y016704D02*
X005358Y016704D01*
X005200Y016546D02*
X006321Y016546D01*
X006321Y016387D02*
X005041Y016387D01*
X005105Y015912D02*
X004618Y015912D01*
X004618Y015753D02*
X005105Y015753D01*
X005105Y015595D02*
X004618Y015595D01*
X004442Y015278D02*
X004159Y015278D01*
X004147Y015436D02*
X005142Y015436D01*
X005170Y015278D02*
X004907Y015278D01*
X004992Y015119D02*
X005105Y015119D01*
X005105Y014960D02*
X004992Y014960D01*
X004992Y014802D02*
X005105Y014802D01*
X004981Y014643D02*
X005280Y014643D01*
X005196Y014485D02*
X005041Y014485D01*
X005020Y014326D02*
X005196Y014326D01*
X004495Y014168D02*
X004387Y014168D01*
X004381Y014326D02*
X004228Y014326D01*
X004106Y014485D02*
X004361Y014485D01*
X004395Y014643D02*
X004182Y014643D01*
X004244Y014802D02*
X004357Y014802D01*
X004357Y014960D02*
X004244Y014960D01*
X004244Y015119D02*
X004357Y015119D01*
X003694Y015278D02*
X003532Y015278D01*
X003560Y015436D02*
X003596Y015436D01*
X003901Y015753D02*
X003983Y015753D01*
X003983Y015912D02*
X003743Y015912D01*
X003609Y015119D02*
X003597Y015119D01*
X003597Y014960D02*
X003609Y014960D01*
X002980Y014643D02*
X000381Y014643D01*
X000381Y014485D02*
X002896Y014485D01*
X002302Y013375D02*
X002171Y013375D01*
X002041Y013216D02*
X002500Y013216D01*
X002701Y013216D02*
X004763Y013216D01*
X004605Y013058D02*
X001910Y013058D01*
X001779Y012899D02*
X004446Y012899D01*
X004288Y012741D02*
X001649Y012741D01*
X001518Y012582D02*
X004129Y012582D01*
X003971Y012424D02*
X001421Y012424D01*
X001421Y012265D02*
X002901Y012265D01*
X002860Y012107D02*
X001421Y012107D01*
X001421Y011948D02*
X002860Y011948D01*
X002860Y011790D02*
X001421Y011790D01*
X001421Y011631D02*
X002860Y011631D01*
X002860Y011473D02*
X001421Y011473D01*
X001421Y011314D02*
X006361Y011314D01*
X006202Y011155D02*
X001421Y011155D01*
X001421Y010997D02*
X001759Y010997D01*
X001727Y010838D02*
X001421Y010838D01*
X001421Y010680D02*
X001727Y010680D01*
X001727Y010521D02*
X001421Y010521D01*
X001421Y010363D02*
X001727Y010363D01*
X001727Y010204D02*
X001421Y010204D01*
X001421Y010046D02*
X001727Y010046D01*
X001727Y009887D02*
X001421Y009887D01*
X001421Y009729D02*
X001727Y009729D01*
X001730Y009570D02*
X001421Y009570D01*
X001421Y009411D02*
X001727Y009411D01*
X001727Y009253D02*
X001421Y009253D01*
X001421Y009094D02*
X001733Y009094D01*
X001727Y008936D02*
X001421Y008936D01*
X001421Y008777D02*
X001727Y008777D01*
X001736Y008619D02*
X001421Y008619D01*
X001421Y008460D02*
X001727Y008460D01*
X001727Y008302D02*
X001453Y008302D01*
X001612Y008143D02*
X001740Y008143D01*
X002665Y008143D02*
X002677Y008155D01*
X002677Y008603D01*
X002665Y008615D01*
X002677Y008628D01*
X002677Y009075D01*
X002665Y009088D01*
X002677Y009100D01*
X002677Y009548D01*
X002665Y009560D01*
X002677Y009573D01*
X002677Y010020D01*
X002665Y010033D01*
X002677Y010045D01*
X002677Y010049D01*
X005936Y010049D01*
X006118Y010049D01*
X006904Y010835D01*
X006904Y010741D01*
X006904Y010560D01*
X006917Y010514D01*
X006927Y010496D01*
X006924Y010493D01*
X006924Y010045D01*
X006937Y010033D01*
X006924Y010020D01*
X006924Y009573D01*
X006937Y009560D01*
X006924Y009548D01*
X006924Y009100D01*
X006937Y009088D01*
X006924Y009075D01*
X006924Y008628D01*
X006937Y008615D01*
X006924Y008603D01*
X006924Y008155D01*
X006937Y008143D01*
X006924Y008130D01*
X006924Y007683D01*
X006937Y007670D01*
X006924Y007658D01*
X006924Y007210D01*
X006937Y007198D01*
X006924Y007185D01*
X006924Y006738D01*
X006937Y006725D01*
X006924Y006713D01*
X006924Y006266D01*
X006937Y006253D01*
X006924Y006241D01*
X002677Y006241D01*
X002665Y006253D01*
X002677Y006266D01*
X002677Y006713D01*
X002665Y006726D01*
X002677Y006738D01*
X002677Y007185D01*
X002665Y007198D01*
X002677Y007210D01*
X002677Y007658D01*
X002665Y007670D01*
X002677Y007683D01*
X002677Y008130D01*
X002665Y008143D01*
X006936Y008143D01*
X006924Y007985D02*
X002677Y007985D01*
X002677Y007826D02*
X006924Y007826D01*
X006934Y007667D02*
X002668Y007667D01*
X002677Y007509D02*
X006924Y007509D01*
X006924Y007350D02*
X002677Y007350D01*
X002671Y007192D02*
X006931Y007192D01*
X006924Y007033D02*
X002677Y007033D01*
X002677Y006875D02*
X006924Y006875D01*
X006927Y006716D02*
X002674Y006716D01*
X002677Y006558D02*
X006924Y006558D01*
X006924Y006399D02*
X002677Y006399D01*
X002677Y006241D02*
X002677Y005793D01*
X002665Y005781D01*
X002677Y005768D01*
X002677Y005321D01*
X002611Y005254D01*
X006962Y005254D01*
X006940Y005276D01*
X006917Y005317D01*
X006904Y005363D01*
X006904Y005544D01*
X007399Y005544D01*
X007399Y005545D01*
X006904Y005545D01*
X006904Y005726D01*
X006917Y005771D01*
X006927Y005790D01*
X006924Y005793D01*
X006924Y006241D01*
X006924Y006082D02*
X002677Y006082D01*
X002677Y005924D02*
X006924Y005924D01*
X006915Y005765D02*
X002677Y005765D01*
X002677Y005606D02*
X006904Y005606D01*
X006904Y005448D02*
X002677Y005448D01*
X002646Y005289D02*
X006933Y005289D01*
X007400Y005544D02*
X007400Y005545D01*
X007894Y005545D01*
X007894Y005726D01*
X007882Y005771D01*
X007871Y005790D01*
X007874Y005793D01*
X007874Y006241D01*
X008001Y006241D01*
X008001Y006243D02*
X008001Y006269D01*
X007874Y006269D01*
X007874Y006266D01*
X007862Y006253D01*
X007874Y006241D01*
X008001Y006243D02*
X007933Y005254D01*
X007836Y005254D01*
X007858Y005276D01*
X007882Y005317D01*
X007894Y005363D01*
X007894Y005544D01*
X007400Y005544D01*
X007894Y005606D02*
X007957Y005606D01*
X007901Y005606D02*
X010534Y005606D01*
X010504Y005679D02*
X010654Y005316D01*
X010932Y005039D01*
X011163Y004943D01*
X010523Y004943D01*
X010483Y005024D01*
X010423Y005120D01*
X010353Y005208D01*
X010273Y005288D01*
X010184Y005359D01*
X010089Y005419D01*
X009987Y005468D01*
X009880Y005505D01*
X009770Y005531D01*
X009681Y005541D01*
X009681Y004943D01*
X009521Y004943D01*
X009521Y005541D01*
X009432Y005531D01*
X009322Y005505D01*
X009215Y005468D01*
X009113Y005419D01*
X009017Y005359D01*
X008929Y005288D01*
X008849Y005208D01*
X008778Y005120D01*
X008718Y005024D01*
X008679Y004943D01*
X008070Y004943D01*
X008070Y005207D01*
X008023Y005254D01*
X007901Y005254D01*
X007901Y005893D01*
X010504Y005881D01*
X010504Y005679D01*
X010504Y005765D02*
X007901Y005765D01*
X007884Y005765D02*
X007968Y005765D01*
X007979Y005924D02*
X007874Y005924D01*
X007874Y006082D02*
X007990Y006082D01*
X007947Y005448D02*
X007894Y005448D01*
X007901Y005448D02*
X009173Y005448D01*
X008930Y005289D02*
X007901Y005289D01*
X007866Y005289D02*
X007936Y005289D01*
X008070Y005131D02*
X008787Y005131D01*
X008693Y004972D02*
X008070Y004972D01*
X009521Y004972D02*
X009681Y004972D01*
X009681Y005131D02*
X009521Y005131D01*
X009521Y005289D02*
X009681Y005289D01*
X009681Y005448D02*
X009521Y005448D01*
X010029Y005448D02*
X010599Y005448D01*
X010681Y005289D02*
X010271Y005289D01*
X010415Y005131D02*
X010839Y005131D01*
X011092Y004972D02*
X010508Y004972D01*
X006924Y008302D02*
X002677Y008302D01*
X002677Y008460D02*
X006924Y008460D01*
X006933Y008619D02*
X002668Y008619D01*
X002677Y008777D02*
X006924Y008777D01*
X006924Y008936D02*
X002677Y008936D01*
X002671Y009094D02*
X006930Y009094D01*
X006924Y009253D02*
X002677Y009253D01*
X002677Y009411D02*
X006924Y009411D01*
X006927Y009570D02*
X002675Y009570D01*
X002677Y009729D02*
X006924Y009729D01*
X006924Y009887D02*
X002677Y009887D01*
X002677Y010046D02*
X006924Y010046D01*
X006924Y010204D02*
X006273Y010204D01*
X006432Y010363D02*
X006924Y010363D01*
X006915Y010521D02*
X006590Y010521D01*
X006749Y010680D02*
X006904Y010680D01*
X006904Y010741D02*
X007399Y010741D01*
X007399Y010741D01*
X006904Y010741D01*
X007148Y011079D02*
X007392Y011323D01*
X008205Y011323D01*
X008205Y011143D01*
X008001Y011143D01*
X008001Y010583D01*
X007933Y010583D01*
X007894Y010567D01*
X007894Y010741D01*
X007400Y010741D01*
X007400Y010741D01*
X007894Y010741D01*
X007894Y010922D01*
X007882Y010968D01*
X007858Y011009D01*
X007825Y011043D01*
X007784Y011066D01*
X007738Y011079D01*
X007399Y011079D01*
X007148Y011079D01*
X007224Y011155D02*
X008205Y011155D01*
X008205Y011314D02*
X007383Y011314D01*
X007399Y011079D02*
X007399Y010742D01*
X007399Y010742D01*
X007399Y011079D01*
X007399Y010997D02*
X007399Y010997D01*
X007399Y010838D02*
X007399Y010838D01*
X007865Y010997D02*
X008001Y010997D01*
X008001Y010838D02*
X007894Y010838D01*
X007894Y010680D02*
X008001Y010680D01*
X008001Y010243D02*
X008001Y009797D01*
X008201Y009597D01*
X006044Y010997D02*
X002645Y010997D01*
X003580Y011473D02*
X003580Y011473D01*
X003580Y011631D02*
X003580Y011631D01*
X003580Y011790D02*
X003580Y011790D01*
X003580Y011844D02*
X003580Y012339D01*
X003580Y011844D01*
X003580Y011844D01*
X003580Y011948D02*
X003580Y011948D01*
X003580Y012107D02*
X003580Y012107D01*
X003580Y012265D02*
X003580Y012265D01*
X005344Y013375D02*
X007815Y013375D01*
X007699Y013534D02*
X005503Y013534D01*
X005661Y013692D02*
X006371Y013692D01*
X006831Y013692D02*
X007581Y013692D01*
X007572Y013851D02*
X006931Y013851D01*
X006941Y014009D02*
X007496Y014009D01*
X007496Y014168D02*
X007206Y014168D01*
X007320Y014326D02*
X007496Y014326D01*
X007496Y014485D02*
X007341Y014485D01*
X007281Y014643D02*
X007580Y014643D01*
X007405Y014802D02*
X007292Y014802D01*
X007292Y014960D02*
X007405Y014960D01*
X007405Y015119D02*
X007292Y015119D01*
X007207Y015278D02*
X007470Y015278D01*
X007442Y015436D02*
X006447Y015436D01*
X006459Y015278D02*
X006742Y015278D01*
X006657Y015119D02*
X006544Y015119D01*
X006544Y014960D02*
X006657Y014960D01*
X006657Y014802D02*
X006544Y014802D01*
X006482Y014643D02*
X006720Y014643D01*
X006661Y014485D02*
X006406Y014485D01*
X006528Y014326D02*
X006681Y014326D01*
X005909Y014960D02*
X005897Y014960D01*
X005897Y015119D02*
X005909Y015119D01*
X005832Y015278D02*
X005994Y015278D01*
X005896Y015436D02*
X005860Y015436D01*
X006201Y015753D02*
X006283Y015753D01*
X006283Y015912D02*
X006043Y015912D01*
X006321Y016070D02*
X004581Y016070D01*
X004581Y016229D02*
X006321Y016229D01*
X006881Y016229D02*
X008791Y016229D01*
X008634Y016070D02*
X006881Y016070D01*
X006918Y015912D02*
X007405Y015912D01*
X007405Y015753D02*
X006918Y015753D01*
X006918Y015595D02*
X007405Y015595D01*
X008160Y015436D02*
X008196Y015436D01*
X008132Y015278D02*
X008294Y015278D01*
X008209Y015119D02*
X008197Y015119D01*
X008197Y014960D02*
X008209Y014960D01*
X008501Y015753D02*
X008583Y015753D01*
X008583Y015912D02*
X008343Y015912D01*
X008541Y016387D02*
X008949Y016387D01*
X009108Y016546D02*
X008700Y016546D01*
X008858Y016704D02*
X009266Y016704D01*
X009425Y016863D02*
X008971Y016863D01*
X008981Y017022D02*
X009584Y017022D01*
X009621Y017180D02*
X008981Y017180D01*
X009097Y017339D02*
X009505Y017339D01*
X009505Y017497D02*
X009097Y017497D01*
X009097Y017656D02*
X009505Y017656D01*
X009557Y017814D02*
X009045Y017814D01*
X009003Y017930D02*
X009097Y018023D01*
X009097Y018471D01*
X009003Y018565D01*
X008398Y018565D01*
X008361Y018527D01*
X008247Y018527D01*
X008247Y018609D01*
X008153Y018702D01*
X007548Y018702D01*
X006948Y018702D01*
X006855Y018609D01*
X006855Y018527D01*
X006741Y018527D01*
X006703Y018565D01*
X006098Y018565D01*
X006005Y018471D01*
X006005Y018023D01*
X006098Y017930D01*
X006703Y017930D01*
X006741Y017967D01*
X006891Y017967D01*
X006948Y017910D01*
X007548Y017910D01*
X008153Y017910D01*
X008210Y017967D01*
X008361Y017967D01*
X008398Y017930D01*
X009003Y017930D01*
X009046Y017973D02*
X009555Y017973D01*
X009598Y017930D02*
X009505Y018023D01*
X009505Y018471D01*
X009598Y018565D01*
X010203Y018565D01*
X010241Y018527D01*
X010355Y018527D01*
X010355Y018609D01*
X010448Y018702D01*
X011048Y018702D01*
X011653Y018702D01*
X011747Y018609D01*
X011747Y018477D01*
X011861Y018477D01*
X011898Y018515D01*
X012503Y018515D01*
X012597Y018421D01*
X012597Y017973D01*
X012503Y017880D01*
X011898Y017880D01*
X011861Y017917D01*
X011660Y017917D01*
X011653Y017910D01*
X011048Y017910D01*
X010448Y017910D01*
X010391Y017967D01*
X010241Y017967D01*
X010203Y017930D01*
X009598Y017930D01*
X009505Y018131D02*
X009097Y018131D01*
X009097Y018290D02*
X009505Y018290D01*
X009505Y018448D02*
X009097Y018448D01*
X008247Y018607D02*
X010355Y018607D01*
X010491Y017896D02*
X010445Y017883D01*
X010404Y017860D01*
X010371Y017826D01*
X010347Y017785D01*
X010335Y017739D01*
X010335Y017518D01*
X010712Y017518D01*
X010712Y017441D01*
X010335Y017441D01*
X010335Y017219D01*
X010347Y017174D01*
X010371Y017133D01*
X010404Y017099D01*
X010445Y017076D01*
X010491Y017063D01*
X010713Y017063D01*
X010713Y017441D01*
X010789Y017441D01*
X010789Y017063D01*
X011011Y017063D01*
X011051Y017074D01*
X011091Y017063D01*
X011313Y017063D01*
X011313Y017441D01*
X011389Y017441D01*
X011389Y017063D01*
X011611Y017063D01*
X011656Y017076D01*
X011698Y017099D01*
X011731Y017133D01*
X011755Y017174D01*
X011767Y017219D01*
X011767Y017441D01*
X011389Y017441D01*
X011389Y017518D01*
X011313Y017518D01*
X011313Y017896D01*
X011091Y017896D01*
X011051Y017885D01*
X011011Y017896D01*
X010789Y017896D01*
X010789Y017518D01*
X010713Y017518D01*
X010713Y017896D01*
X010491Y017896D01*
X010364Y017814D02*
X010245Y017814D01*
X010297Y017656D02*
X010335Y017656D01*
X010297Y017497D02*
X010712Y017497D01*
X010789Y017497D02*
X011312Y017497D01*
X011312Y017518D02*
X011312Y017441D01*
X011167Y017441D01*
X010789Y017441D01*
X010789Y017518D01*
X011167Y017518D01*
X011312Y017518D01*
X011389Y017518D02*
X011389Y017896D01*
X011611Y017896D01*
X011656Y017883D01*
X011698Y017860D01*
X011731Y017826D01*
X011755Y017785D01*
X011767Y017739D01*
X011767Y017518D01*
X011389Y017518D01*
X011389Y017497D02*
X011805Y017497D01*
X011805Y017339D02*
X011767Y017339D01*
X011756Y017180D02*
X011889Y017180D01*
X011884Y017022D02*
X010218Y017022D01*
X010181Y017180D02*
X010345Y017180D01*
X010335Y017339D02*
X010297Y017339D01*
X010713Y017339D02*
X010789Y017339D01*
X010789Y017180D02*
X010713Y017180D01*
X010377Y016863D02*
X011725Y016863D01*
X011389Y017180D02*
X011313Y017180D01*
X011313Y017339D02*
X011389Y017339D01*
X011389Y017656D02*
X011313Y017656D01*
X011313Y017814D02*
X011389Y017814D01*
X011738Y017814D02*
X013864Y017814D01*
X013871Y017826D02*
X013847Y017785D01*
X013835Y017739D01*
X013835Y017518D01*
X014212Y017518D01*
X014212Y017441D01*
X013835Y017441D01*
X013835Y017219D01*
X013847Y017174D01*
X013871Y017133D01*
X013904Y017099D01*
X013945Y017076D01*
X013991Y017063D01*
X014213Y017063D01*
X014213Y017441D01*
X014289Y017441D01*
X014289Y017063D01*
X014511Y017063D01*
X014551Y017074D01*
X014591Y017063D01*
X014813Y017063D01*
X014813Y017441D01*
X014889Y017441D01*
X014889Y017063D01*
X015111Y017063D01*
X015156Y017076D01*
X015198Y017099D01*
X015231Y017133D01*
X015255Y017174D01*
X015267Y017219D01*
X015267Y017441D01*
X014889Y017441D01*
X014889Y017518D01*
X014813Y017518D01*
X014813Y017896D01*
X014591Y017896D01*
X014551Y017885D01*
X014511Y017896D01*
X014289Y017896D01*
X014289Y017518D01*
X014213Y017518D01*
X014213Y017896D01*
X013991Y017896D01*
X013945Y017883D01*
X013904Y017860D01*
X013871Y017826D01*
X013948Y017910D02*
X014548Y017910D01*
X015153Y017910D01*
X015160Y017917D01*
X015361Y017917D01*
X015398Y017880D01*
X016003Y017880D01*
X016097Y017973D01*
X016097Y018421D01*
X016003Y018515D01*
X015398Y018515D01*
X015361Y018477D01*
X015247Y018477D01*
X015247Y018609D01*
X015153Y018702D01*
X014548Y018702D01*
X013948Y018702D01*
X013855Y018609D01*
X013855Y018477D01*
X013741Y018477D01*
X013703Y018515D01*
X013098Y018515D01*
X013005Y018421D01*
X013005Y017973D01*
X012596Y017973D01*
X012597Y018131D02*
X013005Y018131D01*
X013005Y017973D02*
X013098Y017880D01*
X013703Y017880D01*
X013741Y017917D01*
X013941Y017917D01*
X013948Y017910D01*
X013835Y017656D02*
X013797Y017656D01*
X013797Y017497D02*
X014212Y017497D01*
X014289Y017497D02*
X014812Y017497D01*
X014812Y017518D02*
X014812Y017441D01*
X014435Y017441D01*
X014289Y017441D01*
X014289Y017518D01*
X014435Y017518D01*
X014812Y017518D01*
X014889Y017518D02*
X014889Y017896D01*
X015111Y017896D01*
X015156Y017883D01*
X015198Y017860D01*
X015231Y017826D01*
X015255Y017785D01*
X015267Y017739D01*
X015267Y017518D01*
X014889Y017518D01*
X014889Y017497D02*
X015305Y017497D01*
X015305Y017339D02*
X015267Y017339D01*
X015256Y017180D02*
X015389Y017180D01*
X015384Y017022D02*
X013718Y017022D01*
X013712Y017180D02*
X013845Y017180D01*
X013835Y017339D02*
X013797Y017339D01*
X014213Y017339D02*
X014289Y017339D01*
X014289Y017180D02*
X014213Y017180D01*
X013877Y016863D02*
X015225Y016863D01*
X014889Y017180D02*
X014813Y017180D01*
X014813Y017339D02*
X014889Y017339D01*
X014889Y017656D02*
X014813Y017656D01*
X014813Y017814D02*
X014889Y017814D01*
X015238Y017814D02*
X017364Y017814D01*
X017371Y017826D02*
X017347Y017785D01*
X017335Y017739D01*
X017335Y017518D01*
X017712Y017518D01*
X017712Y017441D01*
X017335Y017441D01*
X017335Y017219D01*
X017347Y017174D01*
X017371Y017133D01*
X017404Y017099D01*
X017445Y017076D01*
X017491Y017063D01*
X017713Y017063D01*
X017713Y017441D01*
X017789Y017441D01*
X017789Y017063D01*
X018011Y017063D01*
X018051Y017074D01*
X018091Y017063D01*
X018313Y017063D01*
X018313Y017441D01*
X018389Y017441D01*
X018389Y017063D01*
X018611Y017063D01*
X018656Y017076D01*
X018698Y017099D01*
X018731Y017133D01*
X018755Y017174D01*
X018767Y017219D01*
X018767Y017441D01*
X018389Y017441D01*
X018389Y017518D01*
X018313Y017518D01*
X018313Y017896D01*
X018091Y017896D01*
X018051Y017885D01*
X018011Y017896D01*
X017789Y017896D01*
X017789Y017518D01*
X017713Y017518D01*
X017713Y017896D01*
X017491Y017896D01*
X017445Y017883D01*
X017404Y017860D01*
X017371Y017826D01*
X017448Y017910D02*
X018053Y017910D01*
X018653Y017910D01*
X018660Y017917D01*
X018861Y017917D01*
X018898Y017880D01*
X019503Y017880D01*
X019597Y017973D01*
X019597Y018421D01*
X019503Y018515D01*
X018898Y018515D01*
X018861Y018477D01*
X018747Y018477D01*
X018747Y018609D01*
X018653Y018702D01*
X018053Y018702D01*
X017448Y018702D01*
X017355Y018609D01*
X017355Y018477D01*
X017241Y018477D01*
X017203Y018515D01*
X016598Y018515D01*
X016505Y018421D01*
X016505Y017973D01*
X016096Y017973D01*
X016097Y018131D02*
X016505Y018131D01*
X016505Y017973D02*
X016598Y017880D01*
X017203Y017880D01*
X017241Y017917D01*
X017441Y017917D01*
X017448Y017910D01*
X017335Y017656D02*
X017297Y017656D01*
X017297Y017497D02*
X017712Y017497D01*
X017789Y017497D02*
X018312Y017497D01*
X018312Y017518D02*
X018312Y017441D01*
X018167Y017441D01*
X017789Y017441D01*
X017789Y017518D01*
X018167Y017518D01*
X018312Y017518D01*
X018389Y017518D02*
X018389Y017896D01*
X018611Y017896D01*
X018656Y017883D01*
X018698Y017860D01*
X018731Y017826D01*
X018755Y017785D01*
X018767Y017739D01*
X018767Y017518D01*
X018389Y017518D01*
X018389Y017497D02*
X018805Y017497D01*
X018805Y017339D02*
X018767Y017339D01*
X018756Y017180D02*
X018889Y017180D01*
X018884Y017022D02*
X017218Y017022D01*
X017212Y017180D02*
X017345Y017180D01*
X017335Y017339D02*
X017297Y017339D01*
X017713Y017339D02*
X017789Y017339D01*
X017789Y017180D02*
X017713Y017180D01*
X017377Y016863D02*
X018725Y016863D01*
X018389Y017180D02*
X018313Y017180D01*
X018313Y017339D02*
X018389Y017339D01*
X018389Y017656D02*
X018313Y017656D01*
X018313Y017814D02*
X018389Y017814D01*
X018738Y017814D02*
X021721Y017814D01*
X021721Y017656D02*
X019597Y017656D01*
X019597Y017497D02*
X021721Y017497D01*
X021721Y017339D02*
X019597Y017339D01*
X019512Y017180D02*
X021721Y017180D01*
X021721Y017022D02*
X019481Y017022D01*
X019471Y016863D02*
X021721Y016863D01*
X021721Y016704D02*
X019358Y016704D01*
X019200Y016546D02*
X021721Y016546D01*
X021721Y016387D02*
X019041Y016387D01*
X019503Y015595D02*
X018450Y015595D01*
X018291Y015436D02*
X019471Y015436D01*
X019471Y015278D02*
X018145Y015278D01*
X018173Y015119D02*
X019475Y015119D01*
X019321Y014960D02*
X018173Y014960D01*
X018173Y014802D02*
X019163Y014802D01*
X019004Y014643D02*
X018173Y014643D01*
X018081Y014485D02*
X017828Y014485D01*
X017774Y014326D02*
X018081Y014326D01*
X018081Y014168D02*
X017615Y014168D01*
X017457Y014009D02*
X018081Y014009D01*
X018081Y013851D02*
X017298Y013851D01*
X017168Y013692D02*
X018081Y013692D01*
X018081Y013534D02*
X017009Y013534D01*
X016903Y013375D02*
X018081Y013375D01*
X018081Y013216D02*
X016903Y013216D01*
X016903Y013058D02*
X018081Y013058D01*
X018081Y012899D02*
X016903Y012899D01*
X016903Y012741D02*
X018081Y012741D01*
X018081Y012582D02*
X016903Y012582D01*
X016903Y012424D02*
X018081Y012424D01*
X018081Y012265D02*
X016903Y012265D01*
X016903Y012107D02*
X018081Y012107D01*
X018094Y011948D02*
X018097Y011948D01*
X018173Y011790D02*
X020129Y011790D01*
X020129Y011631D02*
X018173Y011631D01*
X018173Y011473D02*
X020129Y011473D01*
X020129Y011314D02*
X018173Y011314D01*
X018299Y011155D02*
X020214Y011155D01*
X020226Y010997D02*
X018458Y010997D01*
X018616Y010838D02*
X020226Y010838D01*
X020666Y010838D02*
X021721Y010838D01*
X021721Y010680D02*
X021614Y010680D01*
X021614Y010521D02*
X021721Y010521D01*
X021721Y010363D02*
X021614Y010363D01*
X021614Y010204D02*
X021721Y010204D01*
X021721Y010046D02*
X021614Y010046D01*
X021614Y009887D02*
X021721Y009887D01*
X021721Y009729D02*
X021559Y009729D01*
X021721Y009570D02*
X019248Y009570D01*
X019182Y009729D02*
X019090Y009729D01*
X019128Y009887D02*
X017873Y009887D01*
X017875Y009729D02*
X017819Y009729D01*
X017717Y009570D02*
X016273Y009570D01*
X016273Y009411D02*
X017558Y009411D01*
X017445Y009253D02*
X017369Y009253D01*
X017372Y009249D02*
X017348Y009290D01*
X017314Y009323D01*
X017273Y009347D01*
X017228Y009359D01*
X017047Y009359D01*
X017047Y008943D01*
X017384Y008943D01*
X017384Y009203D01*
X017372Y009249D01*
X017384Y009094D02*
X017438Y009094D01*
X017438Y008936D02*
X017384Y008936D01*
X017384Y008943D02*
X017047Y008943D01*
X017047Y008943D01*
X017046Y008943D01*
X017046Y008943D01*
X016709Y008943D01*
X016709Y009203D01*
X016721Y009249D01*
X016745Y009290D01*
X016778Y009323D01*
X016819Y009347D01*
X016865Y009359D01*
X017046Y009359D01*
X017046Y008943D01*
X016709Y008943D01*
X016709Y008683D01*
X016721Y008637D01*
X016745Y008596D01*
X016778Y008563D01*
X016819Y008539D01*
X016865Y008527D01*
X017046Y008527D01*
X017046Y008942D01*
X017047Y008942D01*
X017047Y008527D01*
X017228Y008527D01*
X017273Y008539D01*
X017314Y008563D01*
X017348Y008596D01*
X017372Y008637D01*
X017384Y008683D01*
X017384Y008943D01*
X017384Y008777D02*
X017438Y008777D01*
X017459Y008619D02*
X017361Y008619D01*
X017047Y008619D02*
X017046Y008619D01*
X017046Y008777D02*
X017047Y008777D01*
X017046Y008936D02*
X017047Y008936D01*
X017046Y009094D02*
X017047Y009094D01*
X017046Y009253D02*
X017047Y009253D01*
X016724Y009253D02*
X016273Y009253D01*
X016227Y009094D02*
X016709Y009094D01*
X016709Y008936D02*
X015631Y008936D01*
X015629Y009094D02*
X015684Y009094D01*
X015638Y009253D02*
X015584Y009253D01*
X015584Y009411D02*
X015638Y009411D01*
X015584Y009443D02*
X015247Y009443D01*
X015584Y009443D01*
X015584Y009570D02*
X015638Y009570D01*
X015388Y009859D02*
X015247Y009859D01*
X015247Y009443D01*
X015247Y009443D01*
X015246Y009443D01*
X015246Y009443D01*
X014909Y009443D01*
X014909Y009703D01*
X014921Y009749D01*
X014945Y009790D01*
X014978Y009823D01*
X015019Y009847D01*
X015065Y009859D01*
X015246Y009859D01*
X015246Y009443D01*
X014909Y009443D01*
X014909Y009186D01*
X014701Y009186D01*
X014701Y009807D01*
X014874Y009807D01*
X014968Y009901D01*
X014968Y010585D01*
X014874Y010678D01*
X014701Y010678D01*
X014701Y010923D01*
X014792Y010923D01*
X015418Y011549D01*
X015418Y011400D01*
X015401Y011383D01*
X015333Y011383D01*
X015208Y011331D01*
X015113Y011235D01*
X015061Y011110D01*
X015061Y010975D01*
X015113Y010850D01*
X015208Y010755D01*
X015333Y010703D01*
X015388Y010703D01*
X015388Y009859D01*
X015388Y009887D02*
X014954Y009887D01*
X014968Y010046D02*
X015388Y010046D01*
X015388Y010204D02*
X014968Y010204D01*
X014968Y010363D02*
X015388Y010363D01*
X015388Y010521D02*
X014968Y010521D01*
X014701Y010680D02*
X015388Y010680D01*
X015388Y010703D02*
X015388Y010703D01*
X015635Y010796D02*
X016393Y010796D01*
X016361Y010875D01*
X016361Y011010D01*
X016383Y011065D01*
X016383Y011123D01*
X016329Y011123D01*
X016329Y011552D01*
X016328Y011552D01*
X016328Y011123D01*
X016195Y011123D01*
X016149Y011135D01*
X016135Y011143D01*
X015897Y011143D01*
X015857Y011103D01*
X015760Y011063D01*
X015741Y011043D01*
X015741Y010975D01*
X015689Y010850D01*
X015635Y010796D01*
X015677Y010838D02*
X016376Y010838D01*
X016361Y010997D02*
X015741Y010997D01*
X015401Y011043D02*
X015698Y011340D01*
X015418Y011473D02*
X015342Y011473D01*
X015191Y011314D02*
X015183Y011314D01*
X015079Y011155D02*
X015024Y011155D01*
X015061Y010997D02*
X014866Y010997D01*
X014701Y010838D02*
X015124Y010838D01*
X015246Y009729D02*
X015247Y009729D01*
X015246Y009570D02*
X015247Y009570D01*
X014909Y009570D02*
X014701Y009570D01*
X014701Y009411D02*
X014909Y009411D01*
X014909Y009253D02*
X014701Y009253D01*
X014701Y009729D02*
X014916Y009729D01*
X015631Y008777D02*
X016709Y008777D01*
X016732Y008619D02*
X015631Y008619D01*
X015631Y008460D02*
X019781Y008460D01*
X019761Y008302D02*
X015602Y008302D01*
X014702Y007985D02*
X019284Y007985D01*
X019275Y007826D02*
X014697Y007826D01*
X014692Y007667D02*
X019275Y007667D01*
X019275Y007767D02*
X019690Y007767D01*
X019690Y007767D01*
X019275Y007767D01*
X019691Y007767D02*
X020107Y007767D01*
X019691Y007767D01*
X019691Y007767D01*
X019691Y007826D02*
X019691Y007826D01*
X019691Y007985D02*
X019691Y007985D01*
X020090Y008003D02*
X020168Y008003D01*
X020293Y008055D01*
X020389Y008150D01*
X020427Y008243D01*
X020521Y008243D01*
X020521Y006699D01*
X020521Y006587D01*
X020563Y006484D01*
X020642Y006405D01*
X020745Y006363D01*
X021721Y006363D01*
X021721Y005259D01*
X021689Y005335D01*
X021593Y005431D01*
X021468Y005483D01*
X021333Y005483D01*
X021208Y005431D01*
X021113Y005335D01*
X021061Y005210D01*
X021061Y005075D01*
X021074Y005043D01*
X020401Y005043D01*
X020398Y005449D01*
X020444Y005437D01*
X020625Y005437D01*
X020625Y005852D01*
X020625Y005852D01*
X020625Y005437D01*
X020806Y005437D01*
X020852Y005449D01*
X020893Y005473D01*
X020927Y005506D01*
X020950Y005547D01*
X020963Y005593D01*
X020963Y005853D01*
X020963Y006113D01*
X020950Y006159D01*
X020927Y006200D01*
X020893Y006233D01*
X020852Y006257D01*
X020806Y006269D01*
X020625Y006269D01*
X020444Y006269D01*
X020398Y006257D01*
X020391Y006253D01*
X020381Y007633D01*
X020107Y007633D01*
X020107Y007767D01*
X020107Y007948D01*
X020095Y007994D01*
X020090Y008003D01*
X020097Y007985D02*
X020521Y007985D01*
X020521Y008143D02*
X020382Y008143D01*
X020521Y008143D01*
X020382Y008143D01*
X020389Y008150D01*
X020441Y008275D01*
X020441Y008410D01*
X020389Y008535D01*
X020372Y008552D01*
X020443Y008622D01*
X020509Y008619D02*
X020532Y008578D01*
X020566Y008544D01*
X020607Y008521D01*
X020653Y008509D01*
X020711Y008509D01*
X020642Y008480D01*
X020563Y008401D01*
X020521Y008299D01*
X020521Y008143D01*
X020522Y008302D02*
X020441Y008302D01*
X020420Y008460D02*
X020622Y008460D01*
X020496Y008777D02*
X020443Y008777D01*
X020443Y008936D02*
X020496Y008936D01*
X020496Y009094D02*
X020443Y009094D01*
X020417Y009253D02*
X020522Y009253D01*
X020834Y009253D02*
X020834Y009253D01*
X020834Y009094D02*
X020834Y009094D01*
X020834Y008936D02*
X020834Y008936D01*
X021171Y008936D02*
X021721Y008936D01*
X021721Y009094D02*
X021171Y009094D01*
X021146Y009253D02*
X021721Y009253D01*
X021721Y009411D02*
X019407Y009411D01*
X019259Y008936D02*
X019185Y008936D01*
X019185Y008777D02*
X019259Y008777D01*
X019269Y008619D02*
X019175Y008619D01*
X018560Y008619D02*
X018407Y008619D01*
X018550Y008711D02*
X018550Y008711D01*
X018195Y008619D02*
X018051Y008619D01*
X017873Y010046D02*
X019128Y010046D01*
X019128Y010204D02*
X017873Y010204D01*
X017873Y010363D02*
X018470Y010363D01*
X018311Y010521D02*
X017873Y010521D01*
X017873Y010680D02*
X018153Y010680D01*
X017994Y010838D02*
X017707Y010838D01*
X017821Y010997D02*
X017836Y010997D01*
X017273Y011115D02*
X017101Y010943D01*
X016701Y010943D01*
X016643Y011000D01*
X016329Y011155D02*
X016328Y011155D01*
X016328Y011314D02*
X016329Y011314D01*
X016328Y011473D02*
X016329Y011473D01*
X016328Y011553D02*
X016328Y011983D01*
X016195Y011983D01*
X016149Y011971D01*
X016135Y011963D01*
X015837Y011963D01*
X015832Y011963D01*
X015921Y012052D01*
X015921Y012452D01*
X015921Y012634D01*
X015721Y012834D01*
X015612Y012943D01*
X015792Y013123D01*
X015921Y013252D01*
X015921Y014252D01*
X015921Y014434D01*
X015832Y014523D01*
X015875Y014523D01*
X016190Y014523D01*
X016450Y014523D01*
X016464Y014515D01*
X016510Y014503D01*
X016643Y014503D01*
X016643Y014932D01*
X016643Y014932D01*
X016643Y014503D01*
X016698Y014503D01*
X016698Y013958D01*
X016423Y013683D01*
X016383Y013587D01*
X016383Y013484D01*
X016383Y011983D01*
X016329Y011983D01*
X016329Y011553D01*
X016328Y011553D01*
X016328Y011631D02*
X016329Y011631D01*
X016328Y011790D02*
X016329Y011790D01*
X016328Y011948D02*
X016329Y011948D01*
X016383Y012107D02*
X015921Y012107D01*
X015921Y012265D02*
X016383Y012265D01*
X016383Y012424D02*
X015921Y012424D01*
X015921Y012582D02*
X016383Y012582D01*
X016383Y012741D02*
X015814Y012741D01*
X015655Y012899D02*
X016383Y012899D01*
X016383Y013058D02*
X015727Y013058D01*
X015886Y013216D02*
X016383Y013216D01*
X016383Y013375D02*
X015921Y013375D01*
X015921Y013534D02*
X016383Y013534D01*
X016432Y013692D02*
X015921Y013692D01*
X015921Y013851D02*
X016591Y013851D01*
X016698Y014009D02*
X015921Y014009D01*
X015921Y014168D02*
X016698Y014168D01*
X016698Y014326D02*
X015921Y014326D01*
X015870Y014485D02*
X016698Y014485D01*
X016643Y014643D02*
X016643Y014643D01*
X016643Y014802D02*
X016643Y014802D01*
X016013Y014933D02*
X016011Y014933D01*
X016011Y015463D01*
X016631Y016070D02*
X016785Y016070D01*
X016785Y016177D02*
X017200Y016177D01*
X017200Y016177D01*
X016785Y016177D01*
X016785Y016229D02*
X016483Y016229D01*
X016641Y016387D02*
X016792Y016387D01*
X016800Y016546D02*
X016902Y016546D01*
X017201Y016070D02*
X017201Y016070D01*
X017201Y015912D02*
X017201Y015912D01*
X016819Y015912D02*
X016800Y015912D01*
X017026Y015469D02*
X016951Y015393D01*
X017026Y015469D02*
X017201Y015469D01*
X017201Y015443D02*
X017401Y015443D01*
X017588Y015255D01*
X017588Y014933D01*
X017588Y014480D01*
X016958Y013850D01*
X018491Y013715D02*
X018873Y013715D01*
X019201Y013643D01*
X019414Y013375D02*
X019471Y013375D01*
X019471Y013216D02*
X019438Y013216D01*
X019434Y013058D02*
X019536Y013058D01*
X019695Y012899D02*
X019338Y012899D01*
X019428Y012741D02*
X021721Y012741D01*
X021721Y012899D02*
X021335Y012899D01*
X021229Y012793D02*
X021021Y012793D01*
X021021Y013323D01*
X021551Y013323D01*
X021551Y013115D01*
X021229Y012793D01*
X021021Y012899D02*
X020981Y012899D01*
X020981Y013058D02*
X021021Y013058D01*
X021021Y013216D02*
X020981Y013216D01*
X020666Y012899D02*
X020307Y012899D01*
X020465Y013058D02*
X020508Y013058D01*
X021271Y013851D02*
X021721Y013851D01*
X021721Y014009D02*
X021417Y014009D01*
X021531Y014168D02*
X021721Y014168D01*
X021721Y014326D02*
X021531Y014326D01*
X021531Y014485D02*
X021721Y014485D01*
X021721Y014643D02*
X021450Y014643D01*
X021291Y014802D02*
X021721Y014802D01*
X021721Y014960D02*
X021368Y014960D01*
X021526Y015119D02*
X021721Y015119D01*
X021721Y015278D02*
X021531Y015278D01*
X021531Y015436D02*
X021721Y015436D01*
X021721Y015595D02*
X021498Y015595D01*
X021340Y015753D02*
X021721Y015753D01*
X021721Y015912D02*
X021211Y015912D01*
X021070Y016070D02*
X021721Y016070D01*
X021721Y016229D02*
X020912Y016229D01*
X021721Y017973D02*
X019596Y017973D01*
X019597Y018131D02*
X021721Y018131D01*
X021721Y018290D02*
X019597Y018290D01*
X019569Y018448D02*
X021721Y018448D01*
X021721Y018607D02*
X018747Y018607D01*
X017789Y017814D02*
X017713Y017814D01*
X017713Y017656D02*
X017789Y017656D01*
X018767Y017656D02*
X018805Y017656D01*
X018090Y016229D02*
X017617Y016229D01*
X017617Y016070D02*
X017931Y016070D01*
X017773Y015912D02*
X017583Y015912D01*
X017614Y015753D02*
X017536Y015753D01*
X016325Y016863D02*
X015971Y016863D01*
X015981Y017022D02*
X016484Y017022D01*
X016589Y017180D02*
X016012Y017180D01*
X016097Y017339D02*
X016505Y017339D01*
X016505Y017497D02*
X016097Y017497D01*
X016097Y017656D02*
X016505Y017656D01*
X016505Y018290D02*
X016097Y018290D01*
X016069Y018448D02*
X016532Y018448D01*
X017355Y018607D02*
X015247Y018607D01*
X014289Y017814D02*
X014213Y017814D01*
X014213Y017656D02*
X014289Y017656D01*
X015267Y017656D02*
X015305Y017656D01*
X015858Y016704D02*
X016166Y016704D01*
X016008Y016546D02*
X015700Y016546D01*
X015001Y015797D02*
X015055Y015743D01*
X014605Y015311D02*
X014605Y014865D01*
X014698Y014771D01*
X014781Y014771D01*
X014781Y014752D01*
X014910Y014623D01*
X014917Y014615D01*
X014794Y014615D01*
X014701Y014521D01*
X014701Y014206D01*
X014701Y013955D01*
X014440Y013955D01*
X014403Y014045D01*
X014303Y014145D01*
X014172Y014200D01*
X014138Y014200D01*
X014189Y014250D01*
X014241Y014375D01*
X014241Y014510D01*
X014189Y014635D01*
X014155Y014669D01*
X014192Y014706D01*
X014192Y014899D01*
X014605Y015311D01*
X014605Y015278D02*
X014571Y015278D01*
X014605Y015119D02*
X014412Y015119D01*
X014254Y014960D02*
X014605Y014960D01*
X014667Y014802D02*
X014192Y014802D01*
X014181Y014643D02*
X014889Y014643D01*
X014701Y014485D02*
X014241Y014485D01*
X014220Y014326D02*
X014701Y014326D01*
X014701Y014168D02*
X014249Y014168D01*
X014418Y014009D02*
X014701Y014009D01*
X015111Y013715D02*
X014201Y013715D01*
X014101Y013843D01*
X013701Y013443D02*
X013701Y013400D01*
X015111Y013400D01*
X016958Y011983D02*
X016958Y011553D01*
X016958Y011553D01*
X016958Y011983D01*
X016958Y011948D02*
X016958Y011948D01*
X016958Y011790D02*
X016958Y011790D01*
X016958Y011631D02*
X016958Y011631D01*
X017273Y011553D02*
X017273Y011115D01*
X018491Y012140D02*
X018903Y012140D01*
X019201Y012143D01*
X019401Y012424D02*
X021721Y012424D01*
X021721Y012582D02*
X019441Y012582D01*
X019518Y012265D02*
X021721Y012265D01*
X021721Y012107D02*
X019541Y012107D01*
X019487Y011948D02*
X020933Y011948D01*
X020928Y011947D02*
X020887Y011923D01*
X020854Y011890D01*
X020830Y011849D01*
X020818Y011803D01*
X020818Y011543D01*
X021155Y011543D01*
X021155Y011959D01*
X020974Y011959D01*
X020928Y011947D01*
X020818Y011790D02*
X020764Y011790D01*
X020764Y011631D02*
X020818Y011631D01*
X020818Y011543D02*
X020818Y011283D01*
X020830Y011237D01*
X020854Y011196D01*
X020887Y011163D01*
X020928Y011139D01*
X020974Y011127D01*
X021155Y011127D01*
X021155Y011542D01*
X021155Y011542D01*
X021155Y011127D01*
X021336Y011127D01*
X021382Y011139D01*
X021423Y011163D01*
X021457Y011196D01*
X021480Y011237D01*
X021493Y011283D01*
X021493Y011543D01*
X021493Y011803D01*
X021480Y011849D01*
X021457Y011890D01*
X021423Y011923D01*
X021382Y011947D01*
X021336Y011959D01*
X021155Y011959D01*
X021155Y011543D01*
X021155Y011543D01*
X021155Y011543D01*
X020818Y011543D01*
X020818Y011473D02*
X020764Y011473D01*
X020764Y011314D02*
X020818Y011314D01*
X020899Y011155D02*
X020679Y011155D01*
X020666Y010997D02*
X021721Y010997D01*
X021721Y011155D02*
X021411Y011155D01*
X021493Y011314D02*
X021721Y011314D01*
X021721Y011473D02*
X021493Y011473D01*
X021493Y011543D02*
X021156Y011543D01*
X021493Y011543D01*
X021493Y011631D02*
X021721Y011631D01*
X021721Y011790D02*
X021493Y011790D01*
X021377Y011948D02*
X021721Y011948D01*
X021155Y011948D02*
X021155Y011948D01*
X021155Y011790D02*
X021155Y011790D01*
X021155Y011631D02*
X021155Y011631D01*
X021156Y011543D02*
X021156Y011543D01*
X021155Y011473D02*
X021155Y011473D01*
X021155Y011314D02*
X021155Y011314D01*
X021155Y011155D02*
X021155Y011155D01*
X019128Y010680D02*
X018775Y010680D01*
X018913Y012455D02*
X018491Y012455D01*
X018913Y012455D02*
X019101Y012643D01*
X019101Y013143D02*
X018843Y013400D01*
X018491Y013400D01*
X021429Y013692D02*
X021721Y013692D01*
X021721Y013534D02*
X021551Y013534D01*
X021551Y013375D02*
X021721Y013375D01*
X021721Y013216D02*
X021551Y013216D01*
X021494Y013058D02*
X021721Y013058D01*
X021721Y008777D02*
X021171Y008777D01*
X021159Y008619D02*
X021721Y008619D01*
X020521Y007826D02*
X020107Y007826D01*
X020107Y007667D02*
X020521Y007667D01*
X020521Y007509D02*
X020382Y007509D01*
X020383Y007350D02*
X020521Y007350D01*
X020521Y007192D02*
X020384Y007192D01*
X020385Y007033D02*
X020521Y007033D01*
X020521Y006875D02*
X020387Y006875D01*
X020388Y006716D02*
X020521Y006716D01*
X020533Y006558D02*
X020389Y006558D01*
X020390Y006399D02*
X020657Y006399D01*
X020625Y006269D02*
X020625Y005853D01*
X020625Y006269D01*
X020625Y006241D02*
X020625Y006241D01*
X020625Y006082D02*
X020625Y006082D01*
X020625Y005924D02*
X020625Y005924D01*
X020625Y005853D02*
X020625Y005853D01*
X020626Y005853D02*
X020963Y005853D01*
X020626Y005853D01*
X020626Y005853D01*
X020625Y005765D02*
X020625Y005765D01*
X020625Y005606D02*
X020625Y005606D01*
X020625Y005448D02*
X020625Y005448D01*
X020402Y005448D02*
X020398Y005448D01*
X020398Y005449D02*
X020398Y005449D01*
X020399Y005289D02*
X021094Y005289D01*
X021061Y005131D02*
X020400Y005131D01*
X020111Y004943D02*
X020001Y005053D01*
X020111Y004943D02*
X020801Y004943D01*
X020848Y005448D02*
X021249Y005448D01*
X021553Y005448D02*
X021721Y005448D01*
X021721Y005606D02*
X020963Y005606D01*
X020963Y005765D02*
X021721Y005765D01*
X021721Y005924D02*
X020963Y005924D01*
X020963Y006082D02*
X021721Y006082D01*
X021721Y006241D02*
X020880Y006241D01*
X019951Y006843D02*
X019901Y006843D01*
X019701Y007043D01*
X019701Y007049D01*
X019901Y006843D02*
X019401Y006843D01*
X019091Y006333D02*
X018781Y006403D01*
X019151Y005923D01*
X018489Y005243D02*
X018580Y005151D01*
X018489Y005243D02*
X016401Y005243D01*
X016376Y005267D01*
X016416Y005277D02*
X016235Y005277D01*
X016189Y005289D01*
X014641Y005289D01*
X014641Y005275D02*
X014641Y005410D01*
X014589Y005535D01*
X014565Y005559D01*
X015537Y005559D01*
X015631Y005653D01*
X015631Y005857D01*
X016079Y005855D01*
X016079Y005693D01*
X016416Y005693D01*
X016416Y005693D01*
X016079Y005693D01*
X016079Y005433D01*
X016091Y005387D01*
X016115Y005346D01*
X016148Y005313D01*
X016189Y005289D01*
X016212Y005179D02*
X016119Y005085D01*
X016119Y004943D01*
X015809Y004943D01*
X015809Y005043D01*
X015797Y005089D01*
X015773Y005130D01*
X015740Y005163D01*
X015699Y005187D01*
X015653Y005199D01*
X015531Y005199D01*
X015531Y004943D01*
X015530Y004943D01*
X015530Y005199D01*
X015409Y005199D01*
X015363Y005187D01*
X015349Y005179D01*
X015051Y005179D01*
X014751Y005179D01*
X014601Y005179D01*
X014641Y005275D01*
X014625Y005448D02*
X016079Y005448D01*
X016079Y005606D02*
X015584Y005606D01*
X015631Y005765D02*
X016079Y005765D01*
X016416Y005692D02*
X016417Y005692D01*
X016417Y005277D01*
X016597Y005277D01*
X016598Y005179D01*
X016212Y005179D01*
X016164Y005131D02*
X015772Y005131D01*
X015809Y004972D02*
X016119Y004972D01*
X016416Y005277D02*
X016416Y005692D01*
X016416Y005606D02*
X016417Y005606D01*
X016416Y005448D02*
X016417Y005448D01*
X016416Y005289D02*
X016417Y005289D01*
X015531Y005131D02*
X015530Y005131D01*
X015530Y004972D02*
X015531Y004972D01*
X019525Y002453D02*
X020711Y002453D01*
X021301Y003043D01*
X021708Y005289D02*
X021721Y005289D01*
X012458Y016546D02*
X012200Y016546D01*
X012358Y016704D02*
X012616Y016704D01*
X012471Y016863D02*
X012775Y016863D01*
X012934Y017022D02*
X012481Y017022D01*
X012512Y017180D02*
X013089Y017180D01*
X013005Y017339D02*
X012597Y017339D01*
X012597Y017497D02*
X013005Y017497D01*
X013005Y017656D02*
X012597Y017656D01*
X012597Y018290D02*
X013005Y018290D01*
X013032Y018448D02*
X012569Y018448D01*
X011747Y018607D02*
X013855Y018607D01*
X011805Y017656D02*
X011767Y017656D01*
X010789Y017656D02*
X010713Y017656D01*
X010713Y017814D02*
X010789Y017814D01*
X008421Y017180D02*
X008256Y017180D01*
X008255Y017174D02*
X008267Y017219D01*
X008267Y017441D01*
X007889Y017441D01*
X007889Y017063D01*
X008111Y017063D01*
X008156Y017076D01*
X008198Y017099D01*
X008231Y017133D01*
X008255Y017174D01*
X008267Y017339D02*
X008305Y017339D01*
X008305Y017497D02*
X007889Y017497D01*
X007889Y017518D02*
X008267Y017518D01*
X008267Y017739D01*
X008255Y017785D01*
X008231Y017826D01*
X008198Y017860D01*
X008156Y017883D01*
X008111Y017896D01*
X007889Y017896D01*
X007889Y017518D01*
X007813Y017518D01*
X007813Y017896D01*
X007591Y017896D01*
X007551Y017885D01*
X007511Y017896D01*
X007289Y017896D01*
X007289Y017518D01*
X007213Y017518D01*
X007213Y017896D01*
X006991Y017896D01*
X006945Y017883D01*
X006904Y017860D01*
X006871Y017826D01*
X006847Y017785D01*
X006835Y017739D01*
X006835Y017518D01*
X007212Y017518D01*
X007212Y017441D01*
X006835Y017441D01*
X006835Y017219D01*
X006847Y017174D01*
X006871Y017133D01*
X006904Y017099D01*
X006945Y017076D01*
X006991Y017063D01*
X007213Y017063D01*
X007213Y017441D01*
X007289Y017441D01*
X007289Y017063D01*
X007511Y017063D01*
X007551Y017074D01*
X007591Y017063D01*
X007813Y017063D01*
X007813Y017441D01*
X007889Y017441D01*
X007889Y017518D01*
X007812Y017518D02*
X007812Y017441D01*
X007435Y017441D01*
X007289Y017441D01*
X007289Y017518D01*
X007435Y017518D01*
X007812Y017518D01*
X007812Y017497D02*
X007289Y017497D01*
X007212Y017497D02*
X006797Y017497D01*
X006797Y017339D02*
X006835Y017339D01*
X006845Y017180D02*
X006681Y017180D01*
X006718Y017022D02*
X008384Y017022D01*
X008225Y016863D02*
X006877Y016863D01*
X007213Y017180D02*
X007289Y017180D01*
X007289Y017339D02*
X007213Y017339D01*
X007213Y017656D02*
X007289Y017656D01*
X007289Y017814D02*
X007213Y017814D01*
X006864Y017814D02*
X006745Y017814D01*
X006797Y017656D02*
X006835Y017656D01*
X006057Y017814D02*
X005545Y017814D01*
X005546Y017973D02*
X006055Y017973D01*
X006005Y018131D02*
X005597Y018131D01*
X005597Y018290D02*
X006005Y018290D01*
X006005Y018448D02*
X005597Y018448D01*
X005597Y017656D02*
X006005Y017656D01*
X006005Y017497D02*
X005597Y017497D01*
X005597Y017339D02*
X006005Y017339D01*
X006855Y018607D02*
X004747Y018607D01*
X003779Y017814D02*
X003703Y017814D01*
X003703Y017656D02*
X003779Y017656D01*
X003345Y018607D02*
X000381Y018607D01*
X000381Y018766D02*
X021721Y018766D01*
X021721Y018924D02*
X000381Y018924D01*
X000381Y019083D02*
X021721Y019083D01*
X021721Y019241D02*
X000381Y019241D01*
X007813Y017814D02*
X007889Y017814D01*
X007889Y017656D02*
X007813Y017656D01*
X007813Y017339D02*
X007889Y017339D01*
X007889Y017180D02*
X007813Y017180D01*
X008267Y017656D02*
X008305Y017656D01*
X008357Y017814D02*
X008238Y017814D01*
X006021Y011790D02*
X006021Y011790D01*
X006021Y011631D02*
X006021Y011631D01*
X006021Y011473D02*
X006021Y011473D01*
X000762Y006716D02*
X000381Y006716D01*
X000381Y006558D02*
X000705Y006558D01*
X000705Y006399D02*
X000381Y006399D01*
X000381Y006241D02*
X000705Y006241D01*
X000705Y006082D02*
X000381Y006082D01*
X000381Y005924D02*
X000796Y005924D01*
X000705Y005765D02*
X000381Y005765D01*
X000381Y005606D02*
X000705Y005606D01*
X000705Y005448D02*
X000381Y005448D01*
X000381Y005289D02*
X000705Y005289D01*
X000861Y005131D02*
X000381Y005131D01*
X000381Y004972D02*
X000756Y004972D01*
X000705Y004814D02*
X000381Y004814D01*
X000381Y004655D02*
X000705Y004655D01*
X000705Y004497D02*
X000381Y004497D01*
X001101Y004697D02*
X001101Y005529D01*
D40*
X008048Y005243D02*
X008869Y005243D01*
X008841Y005215D01*
X008770Y005126D01*
X008709Y005029D01*
X008660Y004926D01*
X008622Y004818D01*
X008597Y004707D01*
X008588Y004626D01*
X009511Y004626D01*
X009511Y004447D01*
X008588Y004447D01*
X008597Y004366D01*
X008622Y004255D01*
X008660Y004147D01*
X008709Y004044D01*
X008770Y003947D01*
X008841Y003858D01*
X008922Y003777D01*
X009011Y003706D01*
X009108Y003645D01*
X009211Y003596D01*
X009319Y003558D01*
X009430Y003533D01*
X009511Y003523D01*
X009511Y004446D01*
X009691Y004446D01*
X009691Y003523D01*
X009771Y003533D01*
X009883Y003558D01*
X009990Y003596D01*
X010093Y003645D01*
X010190Y003706D01*
X010279Y003777D01*
X010360Y003858D01*
X010431Y003947D01*
X010492Y004044D01*
X010542Y004147D01*
X010579Y004255D01*
X010605Y004366D01*
X010614Y004447D01*
X009691Y004447D01*
X009691Y004626D01*
X010614Y004626D01*
X010605Y004707D01*
X010579Y004818D01*
X010542Y004926D01*
X010492Y005029D01*
X010431Y005126D01*
X010360Y005215D01*
X010332Y005243D01*
X010713Y005243D01*
X010926Y005030D01*
X011292Y004878D01*
X011689Y004878D01*
X012055Y005030D01*
X012268Y005243D01*
X013963Y005243D01*
X014001Y005152D01*
X014001Y004473D01*
X014002Y004470D01*
X014002Y004010D01*
X013942Y004010D01*
X013770Y003939D01*
X013639Y003807D01*
X013567Y003636D01*
X013567Y003450D01*
X013639Y003278D01*
X013770Y003147D01*
X013942Y003076D01*
X014128Y003076D01*
X014299Y003147D01*
X014431Y003278D01*
X014502Y003450D01*
X014502Y003636D01*
X014431Y003807D01*
X014373Y003865D01*
X014417Y003865D01*
X014755Y003865D01*
X015047Y003865D01*
X015347Y003865D01*
X015359Y003858D01*
X015407Y003845D01*
X015408Y003845D01*
X015371Y003807D01*
X015300Y003636D01*
X015300Y003450D01*
X015371Y003278D01*
X015502Y003147D01*
X015674Y003076D01*
X015860Y003076D01*
X016032Y003147D01*
X016163Y003278D01*
X016234Y003450D01*
X016234Y003636D01*
X016163Y003807D01*
X016032Y003939D01*
X015860Y004010D01*
X015819Y004010D01*
X015819Y004527D01*
X015531Y004527D01*
X015531Y004527D01*
X015819Y004527D01*
X015819Y005044D01*
X015806Y005093D01*
X015781Y005136D01*
X015746Y005171D01*
X015702Y005196D01*
X015654Y005209D01*
X015531Y005209D01*
X015531Y004527D01*
X015530Y004527D01*
X015530Y005209D01*
X015407Y005209D01*
X015359Y005196D01*
X015347Y005189D01*
X015047Y005189D01*
X014755Y005189D01*
X014616Y005189D01*
X014638Y005243D01*
X018256Y005243D01*
X018252Y005231D01*
X018252Y005151D01*
X018252Y005071D01*
X018257Y005053D01*
X018252Y005035D01*
X018253Y005035D02*
X017236Y005035D01*
X017236Y005090D02*
X017137Y005189D01*
X016208Y005189D01*
X016109Y005090D01*
X016109Y003965D01*
X016208Y003865D01*
X017137Y003865D01*
X017236Y003965D01*
X017236Y005090D01*
X017236Y004857D02*
X018257Y004857D01*
X018252Y004874D02*
X018265Y004826D01*
X018290Y004783D01*
X018326Y004747D01*
X018369Y004722D01*
X018417Y004709D01*
X018508Y004709D01*
X018508Y004703D01*
X018511Y004692D01*
X018381Y004692D01*
X018199Y004692D01*
X017951Y004444D01*
X017951Y004335D01*
X017864Y004335D01*
X017765Y004235D01*
X017765Y003912D01*
X017481Y003628D01*
X017481Y003446D01*
X017481Y002052D01*
X017600Y001933D01*
X017236Y001933D01*
X017236Y002924D01*
X017137Y003024D01*
X016208Y003024D01*
X016109Y002924D01*
X016109Y001933D01*
X013693Y001933D01*
X013693Y002924D01*
X013593Y003024D01*
X012665Y003024D01*
X012565Y002924D01*
X012565Y001933D01*
X008080Y001933D01*
X008080Y005212D01*
X008048Y005243D01*
X008078Y005214D02*
X008840Y005214D01*
X008713Y005035D02*
X008080Y005035D01*
X008080Y004857D02*
X008636Y004857D01*
X008594Y004678D02*
X008080Y004678D01*
X008080Y004500D02*
X009511Y004500D01*
X009511Y004321D02*
X009691Y004321D01*
X009691Y004142D02*
X009511Y004142D01*
X009511Y003964D02*
X009691Y003964D01*
X009691Y003785D02*
X009511Y003785D01*
X009511Y003607D02*
X009691Y003607D01*
X010014Y003607D02*
X013567Y003607D01*
X013576Y003428D02*
X008080Y003428D01*
X008080Y003250D02*
X013667Y003250D01*
X013693Y002893D02*
X016109Y002893D01*
X016109Y002714D02*
X013693Y002714D01*
X013693Y002536D02*
X016109Y002536D01*
X016109Y002357D02*
X013693Y002357D01*
X013693Y002178D02*
X016109Y002178D01*
X016109Y002000D02*
X013693Y002000D01*
X012565Y002000D02*
X008080Y002000D01*
X008080Y002178D02*
X012565Y002178D01*
X012565Y002357D02*
X008080Y002357D01*
X008080Y002536D02*
X012565Y002536D01*
X012565Y002714D02*
X008080Y002714D01*
X008080Y002893D02*
X012565Y002893D01*
X012665Y003865D02*
X013593Y003865D01*
X013693Y003965D01*
X013693Y005090D01*
X013593Y005189D01*
X012665Y005189D01*
X012565Y005090D01*
X012565Y003965D01*
X012665Y003865D01*
X012566Y003964D02*
X010442Y003964D01*
X010539Y004142D02*
X012565Y004142D01*
X012565Y004321D02*
X010594Y004321D01*
X010608Y004678D02*
X012565Y004678D01*
X012565Y004500D02*
X009691Y004500D01*
X010288Y003785D02*
X013629Y003785D01*
X013692Y003964D02*
X013830Y003964D01*
X013693Y004142D02*
X014002Y004142D01*
X014002Y004321D02*
X013693Y004321D01*
X013693Y004500D02*
X014001Y004500D01*
X014001Y004678D02*
X013693Y004678D01*
X013693Y004857D02*
X014001Y004857D01*
X014001Y005035D02*
X013693Y005035D01*
X013975Y005214D02*
X012239Y005214D01*
X012060Y005035D02*
X012565Y005035D01*
X012565Y004857D02*
X010566Y004857D01*
X010488Y005035D02*
X010921Y005035D01*
X010742Y005214D02*
X010361Y005214D01*
X008662Y004142D02*
X008080Y004142D01*
X008080Y003964D02*
X008760Y003964D01*
X008914Y003785D02*
X008080Y003785D01*
X008080Y003607D02*
X009188Y003607D01*
X008607Y004321D02*
X008080Y004321D01*
X008080Y003071D02*
X017481Y003071D01*
X017481Y002893D02*
X017236Y002893D01*
X017236Y002714D02*
X017481Y002714D01*
X017481Y002536D02*
X017236Y002536D01*
X017236Y002357D02*
X017481Y002357D01*
X017481Y002178D02*
X017236Y002178D01*
X017236Y002000D02*
X017533Y002000D01*
X018607Y001933D02*
X018721Y002047D01*
X019044Y002047D01*
X019144Y002146D01*
X019144Y002469D01*
X019178Y002503D01*
X019178Y002453D01*
X019525Y002453D01*
X019525Y002453D01*
X019178Y002453D01*
X019178Y002192D01*
X019191Y002143D01*
X019216Y002100D01*
X019251Y002065D01*
X019294Y002040D01*
X019343Y002027D01*
X019525Y002027D01*
X019525Y002452D01*
X019525Y002452D01*
X019525Y002027D01*
X019708Y002027D01*
X019756Y002040D01*
X019799Y002065D01*
X019835Y002100D01*
X019860Y002143D01*
X019873Y002192D01*
X019873Y002453D01*
X019873Y002714D01*
X021711Y002714D01*
X021711Y002536D02*
X019873Y002536D01*
X019873Y002453D02*
X019526Y002453D01*
X019526Y002453D01*
X019873Y002453D01*
X019873Y002357D02*
X021711Y002357D01*
X021711Y002178D02*
X019869Y002178D01*
X019525Y002178D02*
X019525Y002178D01*
X019525Y002357D02*
X019525Y002357D01*
X019178Y002357D02*
X019144Y002357D01*
X019144Y002178D02*
X019181Y002178D01*
X018675Y002000D02*
X021711Y002000D01*
X021711Y001933D02*
X018607Y001933D01*
X019766Y002860D02*
X019853Y002946D01*
X019853Y003559D01*
X019753Y003659D01*
X019741Y003659D01*
X019741Y003704D01*
X019779Y003667D01*
X020234Y003667D01*
X020334Y003766D01*
X020334Y003829D01*
X020388Y003775D01*
X020388Y003766D01*
X020487Y003667D01*
X020943Y003667D01*
X020975Y003699D01*
X020997Y003699D01*
X021094Y003601D01*
X021707Y003601D01*
X021711Y003604D01*
X021711Y001933D01*
X021711Y002893D02*
X019799Y002893D01*
X019766Y002860D02*
X019799Y002841D01*
X019835Y002806D01*
X019860Y002762D01*
X019873Y002714D01*
X019853Y003071D02*
X021711Y003071D01*
X021711Y003250D02*
X019853Y003250D01*
X019853Y003428D02*
X021711Y003428D01*
X021088Y003607D02*
X019805Y003607D01*
X020334Y003785D02*
X020377Y003785D01*
X020634Y004479D02*
X020411Y004702D01*
X020221Y004702D01*
X020216Y004697D01*
X019832Y004697D01*
X019833Y004703D01*
X019833Y004709D01*
X019924Y004709D01*
X019972Y004722D01*
X020016Y004747D01*
X020051Y004783D01*
X020076Y004826D01*
X020089Y004874D01*
X020089Y004954D01*
X020026Y004954D01*
X020026Y004955D01*
X020089Y004955D01*
X020089Y005035D01*
X021067Y005035D01*
X021051Y005073D02*
X021096Y004965D01*
X021094Y004965D01*
X020995Y004865D01*
X020995Y004427D01*
X020943Y004479D01*
X020634Y004479D01*
X020614Y004500D02*
X020995Y004500D01*
X020995Y004678D02*
X020435Y004678D01*
X020084Y004857D02*
X020995Y004857D01*
X021051Y005073D02*
X021051Y005212D01*
X021063Y005243D01*
X020086Y005243D01*
X020089Y005231D01*
X020089Y005151D01*
X020026Y005151D01*
X020026Y005151D01*
X020089Y005151D01*
X020089Y005071D01*
X020084Y005053D01*
X020089Y005035D01*
X020089Y005214D02*
X021051Y005214D01*
X019761Y005125D02*
X019761Y004980D01*
X019761Y004980D01*
X019761Y005125D01*
X019761Y005125D01*
X019761Y005035D02*
X019761Y005035D01*
X019438Y005053D02*
X019434Y005035D01*
X019243Y005035D01*
X019243Y004980D02*
X019434Y004980D01*
X019434Y005035D01*
X019438Y005053D02*
X019434Y005071D01*
X019434Y005125D01*
X019243Y005125D01*
X019243Y004980D01*
X019243Y004809D01*
X019239Y004809D01*
X019098Y004809D01*
X019098Y004980D01*
X019243Y004980D01*
X019243Y004857D02*
X019098Y004857D01*
X019098Y004980D02*
X018908Y004980D01*
X018908Y005035D01*
X019098Y005035D01*
X019098Y004980D02*
X019098Y005125D01*
X018908Y005125D01*
X018908Y005071D01*
X018903Y005053D01*
X018908Y005035D01*
X019098Y005125D02*
X019098Y005243D01*
X019243Y005243D01*
X019243Y005125D01*
X019098Y005125D01*
X019098Y005214D02*
X019243Y005214D01*
X018580Y005125D02*
X018580Y004980D01*
X018580Y004980D01*
X018580Y005125D01*
X018580Y005125D01*
X018580Y005035D02*
X018580Y005035D01*
X018316Y004954D02*
X018252Y004954D01*
X018252Y004874D01*
X018252Y004955D02*
X018315Y004955D01*
X018316Y004954D01*
X018252Y004955D02*
X018252Y005035D01*
X018252Y005151D02*
X018315Y005151D01*
X018316Y005151D01*
X018252Y005151D01*
X018252Y005214D02*
X014626Y005214D01*
X015530Y005035D02*
X015531Y005035D01*
X015530Y004857D02*
X015531Y004857D01*
X015530Y004678D02*
X015531Y004678D01*
X015819Y004678D02*
X016109Y004678D01*
X016109Y004500D02*
X015819Y004500D01*
X015819Y004321D02*
X016109Y004321D01*
X016109Y004142D02*
X015819Y004142D01*
X015971Y003964D02*
X016109Y003964D01*
X016172Y003785D02*
X017638Y003785D01*
X017765Y003964D02*
X017235Y003964D01*
X017236Y004142D02*
X017765Y004142D01*
X017851Y004321D02*
X017236Y004321D01*
X017236Y004500D02*
X018006Y004500D01*
X018185Y004678D02*
X017236Y004678D01*
X017481Y003607D02*
X016234Y003607D01*
X016225Y003428D02*
X017481Y003428D01*
X017481Y003250D02*
X016134Y003250D01*
X015399Y003250D02*
X014402Y003250D01*
X014493Y003428D02*
X015309Y003428D01*
X015300Y003607D02*
X014502Y003607D01*
X014440Y003785D02*
X015362Y003785D01*
X015819Y004857D02*
X016109Y004857D01*
X016109Y005035D02*
X015819Y005035D01*
D41*
X015901Y006183D02*
X015701Y006423D01*
X015701Y006444D01*
X015566Y006579D01*
X014037Y006579D01*
X014000Y006543D01*
X013735Y006543D01*
X013778Y006561D01*
X013819Y006588D01*
X013854Y006623D01*
X013881Y006664D01*
X013900Y006709D01*
X013910Y006758D01*
X013910Y006979D01*
X012754Y006979D01*
X012754Y006979D01*
X013910Y006979D01*
X013910Y007063D01*
X017335Y007063D01*
X017330Y007058D01*
X017303Y007017D01*
X017284Y006972D01*
X017274Y006923D01*
X017274Y006643D01*
X017780Y006643D01*
X017780Y006643D01*
X017780Y006894D01*
X017780Y006894D01*
X017780Y006643D01*
X017780Y006643D01*
X017274Y006643D01*
X017274Y006362D01*
X017284Y006314D01*
X017303Y006269D01*
X017330Y006228D01*
X017365Y006193D01*
X017403Y006167D01*
X017360Y006168D01*
X017356Y006169D01*
X017307Y006179D01*
X017125Y006179D01*
X016943Y006179D01*
X016909Y006172D01*
X015901Y006183D01*
X015704Y006420D02*
X017274Y006420D01*
X017125Y006179D02*
X017125Y006170D01*
X017125Y006179D01*
X017125Y006170D02*
X017125Y006170D01*
X017274Y006718D02*
X013902Y006718D01*
X013910Y007017D02*
X017303Y007017D01*
X017780Y006718D02*
X017780Y006718D01*
X014811Y007713D02*
X013910Y007713D01*
X013910Y007766D01*
X012754Y007766D01*
X011599Y007766D01*
X011599Y007713D01*
X011426Y007713D01*
X010946Y008193D01*
X011070Y008193D01*
X011199Y008246D01*
X011497Y008545D01*
X011551Y008673D01*
X011551Y008812D01*
X011551Y009573D01*
X011551Y009712D01*
X011540Y009737D01*
X011971Y009737D01*
X011971Y009593D01*
X011953Y009575D01*
X011891Y009424D01*
X011891Y009261D01*
X011953Y009111D01*
X012069Y008995D01*
X012219Y008933D01*
X012382Y008933D01*
X012533Y008995D01*
X012648Y009111D01*
X012711Y009261D01*
X012711Y009424D01*
X012648Y009575D01*
X012631Y009593D01*
X012631Y010178D01*
X012636Y010226D01*
X012631Y010244D01*
X012631Y010262D01*
X012612Y010306D01*
X012599Y010352D01*
X012588Y010366D01*
X012581Y010383D01*
X012547Y010417D01*
X012538Y010428D01*
X012538Y010513D01*
X012664Y010513D01*
X012914Y010263D01*
X012964Y010206D01*
X012964Y009872D01*
X013098Y009737D01*
X013643Y009737D01*
X013745Y009839D01*
X013846Y009737D01*
X013971Y009737D01*
X013971Y009719D01*
X013965Y009676D01*
X013971Y009654D01*
X013971Y009593D01*
X013953Y009575D01*
X013891Y009424D01*
X013891Y009261D01*
X013935Y009155D01*
X013902Y009122D01*
X013902Y008301D01*
X014037Y008166D01*
X014809Y008166D01*
X014811Y007713D01*
X014810Y007912D02*
X013910Y007912D01*
X013910Y007988D02*
X013900Y008036D01*
X013881Y008082D01*
X013854Y008123D01*
X013819Y008158D01*
X013778Y008185D01*
X013733Y008204D01*
X013684Y008213D01*
X012754Y008213D01*
X011824Y008213D01*
X011776Y008204D01*
X011730Y008185D01*
X011689Y008158D01*
X011654Y008123D01*
X011627Y008082D01*
X011608Y008036D01*
X011599Y007988D01*
X011599Y007767D01*
X012754Y007767D01*
X012754Y008213D01*
X012754Y007767D01*
X012754Y007767D01*
X012754Y007766D01*
X012754Y007767D01*
X013910Y007767D01*
X013910Y007988D01*
X013992Y008211D02*
X013697Y008211D01*
X013902Y008509D02*
X011462Y008509D01*
X011551Y008808D02*
X013902Y008808D01*
X013902Y009106D02*
X012644Y009106D01*
X012711Y009405D02*
X013891Y009405D01*
X013969Y009704D02*
X012631Y009704D01*
X012631Y010002D02*
X012964Y010002D01*
X012876Y010301D02*
X012615Y010301D01*
X011971Y009704D02*
X011551Y009704D01*
X011551Y009405D02*
X011891Y009405D01*
X011957Y009106D02*
X011551Y009106D01*
X010851Y008949D02*
X010851Y008888D01*
X010840Y008877D01*
X010271Y008877D01*
X010136Y008742D01*
X010136Y008493D01*
X010120Y008493D01*
X010045Y008568D01*
X010045Y008707D01*
X010056Y008732D01*
X010065Y008780D01*
X010065Y008913D01*
X010065Y009046D01*
X010056Y009094D01*
X010045Y009119D01*
X010045Y009434D01*
X010136Y009343D01*
X010136Y009083D01*
X010271Y008949D01*
X010851Y008949D01*
X010202Y008808D02*
X010065Y008808D01*
X010065Y008913D02*
X009579Y008913D01*
X010065Y008913D01*
X010050Y009106D02*
X010136Y009106D01*
X010074Y009405D02*
X010045Y009405D01*
X009579Y008913D02*
X009579Y008913D01*
X009113Y008491D02*
X009113Y008335D01*
X009247Y008201D01*
X009422Y008201D01*
X009451Y008172D01*
X009446Y008172D01*
X009147Y008092D01*
X008879Y007937D01*
X008661Y007719D01*
X008619Y007647D01*
X008603Y007643D01*
X008611Y007661D01*
X008611Y007824D01*
X008548Y007975D01*
X008433Y008090D01*
X008282Y008153D01*
X008119Y008153D01*
X007969Y008090D01*
X007944Y008066D01*
X007944Y008126D01*
X007944Y008481D01*
X008201Y008481D01*
X008462Y008481D01*
X008510Y008491D01*
X008511Y008491D01*
X009113Y008491D01*
X009237Y008211D02*
X007944Y008211D01*
X008201Y008481D02*
X008201Y008888D01*
X008201Y008481D01*
X008201Y008509D02*
X008201Y008509D01*
X008201Y008808D02*
X008201Y008808D01*
X008201Y008888D02*
X008201Y008888D01*
X008574Y007912D02*
X008854Y007912D01*
X010103Y008509D02*
X010136Y008509D01*
X011114Y008211D02*
X011811Y008211D01*
X011599Y007912D02*
X011226Y007912D01*
X012754Y007912D02*
X012754Y007912D01*
X012754Y008211D02*
X012754Y008211D01*
D42*
X012754Y006979D02*
X011664Y006979D01*
X010501Y008143D01*
X009975Y008143D01*
X009579Y008539D01*
X011001Y008543D02*
X011201Y008743D01*
X011201Y009643D01*
X010654Y010189D01*
X010871Y010243D01*
X010529Y010369D01*
X009901Y010369D01*
X009891Y011067D02*
X009871Y011087D01*
X009231Y011087D01*
X009891Y011067D02*
X010476Y011067D01*
X010501Y011073D01*
X008001Y010243D02*
X007975Y010269D01*
X007399Y010269D01*
X007001Y014443D02*
X007001Y014923D01*
X006975Y014949D01*
X006601Y015776D02*
X006601Y016543D01*
X006801Y016543D01*
X008301Y016543D01*
X008701Y016943D01*
X008701Y017539D01*
X008701Y018247D02*
X007851Y018247D01*
X007851Y018306D01*
X007251Y018306D02*
X007251Y018247D01*
X006401Y018247D01*
X006401Y017539D02*
X006401Y016943D01*
X006801Y016543D01*
X005201Y016943D02*
X005201Y017539D01*
X005201Y016943D02*
X004801Y016543D01*
X004301Y016543D01*
X004301Y015776D01*
X004301Y016543D02*
X003301Y016543D01*
X002901Y016943D01*
X002901Y017539D01*
X002901Y018247D02*
X003741Y018247D01*
X003741Y018306D01*
X004351Y018306D02*
X004351Y018247D01*
X005201Y018247D01*
X004675Y014949D02*
X004675Y014469D01*
X004701Y014443D01*
X008901Y015776D02*
X008901Y015943D01*
X009901Y016943D01*
X010301Y016543D01*
X011801Y016543D01*
X012201Y016943D01*
X012201Y017489D01*
X012201Y018197D02*
X011351Y018197D01*
X011351Y018306D01*
X010751Y018306D02*
X010751Y018247D01*
X009901Y018247D01*
X009901Y017539D02*
X009901Y016943D01*
X011201Y015843D02*
X011201Y015776D01*
X011201Y015843D02*
X011501Y016143D01*
X012451Y016143D01*
X013251Y016943D01*
X013401Y016943D01*
X013801Y016543D01*
X015301Y016543D01*
X015701Y016943D01*
X015701Y017489D01*
X015701Y018197D02*
X014851Y018197D01*
X014851Y018306D01*
X014251Y018306D02*
X014251Y018197D01*
X013401Y018197D01*
X013401Y017489D02*
X013401Y016943D01*
X013918Y016193D02*
X016051Y016193D01*
X016751Y016893D01*
X016951Y016893D01*
X017301Y016543D01*
X018801Y016543D01*
X019201Y016943D01*
X019201Y017489D01*
X019201Y018197D02*
X018351Y018197D01*
X018351Y018306D01*
X017751Y018306D02*
X017751Y018197D01*
X016901Y018197D01*
X016901Y017489D02*
X016901Y016943D01*
X016951Y016893D01*
X013918Y016193D02*
X013501Y015776D01*
X013875Y014949D02*
X013875Y014469D01*
X013901Y014443D01*
X011601Y014443D02*
X011575Y014469D01*
X011575Y014949D01*
X009301Y014443D02*
X009275Y014469D01*
X009275Y014949D01*
X015698Y011553D02*
X015698Y011340D01*
D43*
X015701Y012143D02*
X015701Y012543D01*
X015501Y012743D01*
X015138Y012743D01*
X015111Y012770D01*
X015111Y012455D02*
X015098Y012443D01*
X014001Y012443D01*
X013701Y012143D01*
X013701Y011743D01*
X013401Y011443D01*
X011101Y011443D01*
X010801Y011743D01*
X007101Y011743D01*
X006099Y010741D01*
X002202Y010741D01*
X002202Y010269D02*
X006027Y010269D01*
X007301Y011543D01*
X010701Y011543D01*
X011101Y011143D01*
X013901Y011143D01*
X014124Y011366D01*
X014124Y011643D01*
X014478Y011643D02*
X014976Y012140D01*
X015111Y012140D01*
X015701Y012143D02*
X014701Y011143D01*
X013901Y011143D01*
X013101Y011943D02*
X012105Y011943D01*
X012055Y011893D01*
X012055Y012493D02*
X012698Y013085D01*
X015111Y013085D01*
X015443Y013085D01*
X015701Y013343D01*
X015701Y014343D01*
X015301Y014743D01*
X015101Y014743D01*
X015001Y014843D01*
X015001Y015089D01*
X013501Y014043D02*
X013301Y014243D01*
X013021Y014243D01*
X012701Y014243D02*
X012701Y014689D01*
X012401Y014989D01*
X013127Y014949D02*
X013127Y015417D01*
X012801Y015743D01*
X012446Y015743D01*
X012401Y015697D01*
X012381Y014243D02*
X012401Y014223D01*
X012401Y013643D01*
X011701Y012943D01*
X009201Y012943D01*
X008701Y012443D01*
X007901Y012443D01*
X007501Y012843D01*
X005001Y012843D01*
X004525Y012367D01*
X004525Y011844D01*
X004053Y011844D02*
X004053Y012195D01*
X004901Y013043D01*
X007801Y013043D01*
X008301Y012743D01*
X008901Y013543D01*
X009801Y013543D01*
X010101Y013843D01*
X010101Y014223D01*
X010081Y014243D01*
X010401Y014243D02*
X010401Y014689D01*
X010101Y014989D01*
X010827Y014949D02*
X010827Y015417D01*
X010501Y015743D01*
X010146Y015743D01*
X010101Y015697D01*
X010721Y014243D02*
X010901Y014243D01*
X011201Y013943D01*
X011296Y012543D02*
X011001Y012543D01*
X010601Y012143D01*
X007701Y012143D01*
X007201Y012643D01*
X005401Y012643D01*
X005076Y012318D01*
X005076Y011844D01*
X005549Y011844D02*
X005549Y012291D01*
X005701Y012443D01*
X007101Y012443D01*
X007601Y011943D01*
X011296Y011943D01*
X011346Y011893D01*
X011346Y012493D02*
X011296Y012543D01*
X009801Y010743D02*
X009901Y010643D01*
X009901Y010369D01*
X009891Y010359D01*
X009801Y010743D02*
X008801Y010743D01*
X008601Y010943D01*
X008601Y011056D01*
X009231Y010379D02*
X009231Y010013D01*
X009501Y009743D01*
X010147Y009743D01*
X010603Y009287D01*
X010607Y008543D02*
X010603Y008539D01*
X009579Y009287D02*
X008939Y009287D01*
X008831Y008879D01*
X008831Y009587D02*
X008601Y009717D01*
X008601Y010229D01*
X008201Y007743D02*
X008201Y006743D01*
X007947Y006489D01*
X007399Y006489D01*
X002202Y007434D02*
X001509Y007434D01*
X001501Y007443D01*
X001537Y007907D02*
X001201Y008243D01*
X001201Y012543D01*
X002601Y014243D01*
X003181Y014243D01*
X003501Y014243D02*
X003501Y014689D01*
X003201Y014989D01*
X003927Y014949D02*
X003927Y015417D01*
X003601Y015743D01*
X003246Y015743D01*
X003201Y015697D01*
X003821Y014243D02*
X004001Y014243D01*
X004301Y013943D01*
X005001Y013943D01*
X005201Y013543D02*
X005501Y013843D01*
X005501Y014223D01*
X005481Y014243D01*
X005801Y014243D02*
X005801Y014689D01*
X005501Y014989D01*
X006121Y014243D02*
X006301Y014243D01*
X006601Y013943D01*
X006227Y014949D02*
X006227Y015417D01*
X005901Y015743D01*
X005546Y015743D01*
X005501Y015697D01*
X005201Y013543D02*
X002601Y013543D01*
X007801Y013743D02*
X007801Y014223D01*
X007781Y014243D01*
X008101Y014243D02*
X008101Y014689D01*
X007801Y014989D01*
X008527Y014949D02*
X008527Y015417D01*
X008201Y015743D01*
X007846Y015743D01*
X007801Y015697D01*
X008421Y014243D02*
X008601Y014243D01*
X008901Y013943D01*
X008201Y013193D02*
X007901Y013643D01*
X007801Y013743D01*
X002202Y007907D02*
X001537Y007907D01*
X015955Y009443D02*
X015955Y009567D01*
X016631Y010243D01*
X016801Y010243D01*
X017601Y011043D01*
X017601Y011540D01*
X017588Y011553D01*
X017903Y011553D02*
X017903Y011240D01*
X018701Y010443D01*
X020171Y010443D01*
X020371Y010243D01*
X020446Y010318D01*
X020446Y011543D01*
X020436Y011553D01*
X018965Y009543D02*
X019576Y008931D01*
X019583Y008925D01*
X020125Y008925D01*
X020101Y008900D01*
X020101Y008343D01*
X018868Y008931D02*
X018313Y008931D01*
X018301Y008943D01*
X017755Y008943D02*
X017755Y009297D01*
X018001Y009543D01*
X018965Y009543D01*
X019691Y007059D02*
X019701Y007049D01*
X019701Y006543D01*
X019378Y006210D01*
X019151Y005923D02*
X019171Y005903D01*
X018771Y005843D02*
X018581Y006033D01*
X018210Y005634D02*
X017901Y005943D01*
X017780Y006643D02*
X017301Y006643D01*
X017101Y006843D01*
X017101Y006943D01*
X017780Y006813D02*
X017780Y006643D01*
X018961Y006643D02*
X019171Y006633D01*
X019916Y005853D02*
X019697Y005634D01*
X020316Y004472D02*
X020715Y004073D01*
X020559Y003929D01*
X021401Y003929D01*
X021401Y004637D02*
X021401Y005143D01*
X020006Y004073D02*
X019691Y004073D01*
X019521Y003903D01*
D44*
X014271Y004527D02*
X014271Y005313D01*
X014301Y005343D01*
X011001Y008543D02*
X010607Y008543D01*
X010871Y010243D02*
X011254Y010843D01*
X012801Y010843D01*
X013154Y010489D01*
X013371Y010243D01*
X014375Y010243D02*
X014301Y009696D01*
X014301Y009343D01*
X012301Y009343D02*
X012301Y010196D01*
X011875Y010243D01*
X016643Y011000D02*
X016643Y011553D01*
X016643Y013535D01*
X016958Y013850D01*
X016958Y014933D01*
X016951Y014940D02*
X016951Y015393D01*
X016501Y015843D01*
X015046Y015843D01*
X015001Y015797D01*
X014723Y015797D01*
X013875Y014949D01*
D45*
X019171Y006633D02*
X019171Y005634D01*
X019171Y005903D01*
X019368Y005634D02*
X019378Y006210D01*
X019564Y005634D02*
X019697Y005634D01*
X018777Y005634D02*
X018210Y005634D01*
X018777Y005634D02*
X018777Y005846D01*
X019564Y004472D02*
X020316Y004472D01*
D46*
X019367Y005859D02*
X019367Y005941D01*
X019355Y005941D01*
X019360Y005979D01*
X019352Y005989D01*
X019359Y006798D01*
X019369Y006789D01*
X019401Y006771D01*
X019436Y006761D01*
X019652Y006761D01*
X019652Y006943D01*
X019730Y006943D01*
X019730Y006761D01*
X019945Y006761D01*
X019981Y006771D01*
X020001Y006782D01*
X020001Y006493D01*
X019717Y006209D01*
X019709Y006209D01*
X019639Y006139D01*
X019639Y006131D01*
X019448Y005940D01*
X019444Y005941D01*
X019368Y005941D01*
X019368Y005860D01*
X019367Y005859D01*
X019367Y005884D02*
X019368Y005884D01*
X019358Y005963D02*
X019471Y005963D01*
X019549Y006041D02*
X019353Y006041D01*
X019353Y006120D02*
X019628Y006120D01*
X019699Y006198D02*
X019354Y006198D01*
X019355Y006277D02*
X019785Y006277D01*
X019863Y006355D02*
X019355Y006355D01*
X019356Y006434D02*
X019942Y006434D01*
X020001Y006513D02*
X019357Y006513D01*
X019358Y006591D02*
X020001Y006591D01*
X020001Y006670D02*
X019358Y006670D01*
X019359Y006748D02*
X020001Y006748D01*
X019730Y006827D02*
X019652Y006827D01*
X019652Y006905D02*
X019730Y006905D01*
X019183Y006247D02*
X019166Y005941D01*
X019094Y005941D01*
X019088Y005939D01*
X018858Y006247D01*
X018921Y006247D01*
X018921Y006399D01*
X019001Y006397D01*
X019001Y006247D01*
X019183Y006247D01*
X019180Y006198D02*
X018894Y006198D01*
X018921Y006277D02*
X019001Y006277D01*
X019001Y006355D02*
X018921Y006355D01*
X018953Y006120D02*
X019176Y006120D01*
X019172Y006041D02*
X019012Y006041D01*
X019071Y005963D02*
X019167Y005963D01*
X018777Y005866D02*
X018777Y005634D01*
X018777Y005867D01*
X018777Y005866D01*
X018777Y005806D02*
X018777Y005806D01*
X018777Y005727D02*
X018777Y005727D01*
X018777Y005649D02*
X018777Y005649D01*
X018777Y005634D02*
X018777Y005634D01*
X018777Y005633D01*
X018579Y005633D01*
X018579Y005502D01*
X017423Y005495D01*
X017423Y005654D01*
X017164Y005654D01*
X017164Y005732D01*
X017086Y005732D01*
X017086Y006069D01*
X016951Y006069D01*
X016951Y006643D01*
X017740Y006643D01*
X017740Y006603D01*
X017384Y006603D01*
X017384Y006368D01*
X017394Y006333D01*
X017412Y006301D01*
X017438Y006275D01*
X017470Y006256D01*
X017506Y006247D01*
X017740Y006247D01*
X017740Y006603D01*
X017820Y006603D01*
X017820Y006247D01*
X018055Y006247D01*
X018090Y006256D01*
X018122Y006275D01*
X018148Y006301D01*
X018167Y006333D01*
X018176Y006368D01*
X018176Y006467D01*
X018703Y005941D01*
X018700Y005941D01*
X018665Y005931D01*
X018633Y005913D01*
X018607Y005887D01*
X018588Y005855D01*
X018579Y005819D01*
X018579Y005634D01*
X018777Y005634D01*
X018579Y005649D02*
X017423Y005649D01*
X017423Y005570D02*
X018579Y005570D01*
X018579Y005727D02*
X017164Y005727D01*
X017164Y005732D02*
X017423Y005732D01*
X017423Y005947D01*
X017413Y005983D01*
X017395Y006015D01*
X017369Y006041D01*
X017337Y006059D01*
X017301Y006069D01*
X017164Y006069D01*
X017164Y005732D01*
X017164Y005806D02*
X017086Y005806D01*
X017086Y005884D02*
X017164Y005884D01*
X017164Y005963D02*
X017086Y005963D01*
X017086Y006041D02*
X017164Y006041D01*
X017368Y006041D02*
X018602Y006041D01*
X018524Y006120D02*
X016951Y006120D01*
X016951Y006198D02*
X018445Y006198D01*
X018367Y006277D02*
X018124Y006277D01*
X018173Y006355D02*
X018288Y006355D01*
X018210Y006434D02*
X018176Y006434D01*
X017820Y006434D02*
X017740Y006434D01*
X017740Y006513D02*
X017820Y006513D01*
X017820Y006591D02*
X017740Y006591D01*
X017740Y006355D02*
X017820Y006355D01*
X017820Y006277D02*
X017740Y006277D01*
X017436Y006277D02*
X016951Y006277D01*
X016951Y006355D02*
X017388Y006355D01*
X017384Y006434D02*
X016951Y006434D01*
X016951Y006513D02*
X017384Y006513D01*
X017384Y006591D02*
X016951Y006591D01*
X017419Y005963D02*
X018681Y005963D01*
X018605Y005884D02*
X017423Y005884D01*
X017423Y005806D02*
X018579Y005806D01*
M02*
