G75*
G70*
%OFA0B0*%
%FSLAX24Y24*%
%IPPOS*%
%LPD*%
%AMOC8*
5,1,8,0,0,1.08239X$1,22.5*
%
%ADD10C,0.0000*%
D10*
X000101Y001643D02*
X022001Y001643D01*
X022001Y006643D01*
X020801Y006643D01*
X020801Y008243D01*
X022001Y008243D01*
X022001Y019643D01*
X000101Y019643D01*
X000101Y001643D01*
X013858Y003543D02*
X013860Y003569D01*
X013866Y003595D01*
X013876Y003620D01*
X013889Y003643D01*
X013905Y003663D01*
X013925Y003681D01*
X013947Y003696D01*
X013970Y003708D01*
X013996Y003716D01*
X014022Y003720D01*
X014048Y003720D01*
X014074Y003716D01*
X014100Y003708D01*
X014124Y003696D01*
X014145Y003681D01*
X014165Y003663D01*
X014181Y003643D01*
X014194Y003620D01*
X014204Y003595D01*
X014210Y003569D01*
X014212Y003543D01*
X014210Y003517D01*
X014204Y003491D01*
X014194Y003466D01*
X014181Y003443D01*
X014165Y003423D01*
X014145Y003405D01*
X014123Y003390D01*
X014100Y003378D01*
X014074Y003370D01*
X014048Y003366D01*
X014022Y003366D01*
X013996Y003370D01*
X013970Y003378D01*
X013946Y003390D01*
X013925Y003405D01*
X013905Y003423D01*
X013889Y003443D01*
X013876Y003466D01*
X013866Y003491D01*
X013860Y003517D01*
X013858Y003543D01*
X015590Y003543D02*
X015592Y003569D01*
X015598Y003595D01*
X015608Y003620D01*
X015621Y003643D01*
X015637Y003663D01*
X015657Y003681D01*
X015679Y003696D01*
X015702Y003708D01*
X015728Y003716D01*
X015754Y003720D01*
X015780Y003720D01*
X015806Y003716D01*
X015832Y003708D01*
X015856Y003696D01*
X015877Y003681D01*
X015897Y003663D01*
X015913Y003643D01*
X015926Y003620D01*
X015936Y003595D01*
X015942Y003569D01*
X015944Y003543D01*
X015942Y003517D01*
X015936Y003491D01*
X015926Y003466D01*
X015913Y003443D01*
X015897Y003423D01*
X015877Y003405D01*
X015855Y003390D01*
X015832Y003378D01*
X015806Y003370D01*
X015780Y003366D01*
X015754Y003366D01*
X015728Y003370D01*
X015702Y003378D01*
X015678Y003390D01*
X015657Y003405D01*
X015637Y003423D01*
X015621Y003443D01*
X015608Y003466D01*
X015598Y003491D01*
X015592Y003517D01*
X015590Y003543D01*
M02*
