%
M48
M72
T01C0.0200
T02C0.0354
T03C0.0400
T04C0.1000
T05C0.1102
T06C0.1260
%
T01
X1501Y7443
X6601Y10143
X8001Y10243
X8911Y8413
X8201Y7743
X10811Y8913
X11411Y8213
X12301Y9343
X13111Y8313
X14301Y9343
X15831Y8793
X17101Y6943
X17901Y5943
X18671Y5053
X19171Y5053
X19671Y5053
X19171Y3753
X17421Y4473
X15771Y5453
X14301Y5343
X18301Y8943
X20101Y8343
X20271Y7853
X19701Y6543
X21071Y5793
X21401Y5143
X16701Y10943
X16251Y10913
X15401Y11043
X13101Y11943
X11201Y13943
X11601Y14443
X13501Y14043
X13901Y14443
X14451Y14623
X16011Y15463
X14851Y16933
X14251Y16933
X12801Y17883
X11351Y16943
X10741Y16943
X9301Y17883
X7851Y16943
X7251Y16943
X5801Y17883
X4351Y16943
X3741Y16933
X4701Y14443
X5001Y13943
X6601Y13943
X7001Y14443
X8201Y13193
X8901Y13943
X9301Y14443
X10501Y11073
X17731Y16113
X17751Y16933
X18351Y16943
X18351Y14823
X19201Y13643
X19101Y13143
X19101Y12643
X19201Y12143
X18461Y11193
X20801Y12343
X16301Y17883
X2601Y13543
X2501Y12243
T02
X14035Y3543
X15767Y3543
T03
X20001Y13343
X21001Y13343
X21001Y14343
X21001Y15343
X20001Y15343
X20001Y14343
T04
X1401Y2943
X1401Y18343
X20701Y18343
X20701Y2943
T05
X11491Y5875
X9601Y4537
T06
X9601Y6997
M30
