G75*
G70*
%OFA0B0*%
%FSLAX24Y24*%
%IPPOS*%
%LPD*%
%AMOC8*
5,1,8,0,0,1.08239X$1,22.5*
%
%ADD10C,0.1950*%
%ADD11C,0.1714*%
%ADD12OC8,0.0800*%
%ADD13C,0.0414*%
%ADD14C,0.1560*%
%ADD15C,0.0420*%
D10*
X009601Y006997D03*
D11*
X011491Y005875D03*
X009601Y004537D03*
D12*
X020001Y013343D03*
X021001Y013343D03*
X021001Y014343D03*
X021001Y015343D03*
X020001Y015343D03*
X020001Y014343D03*
D13*
X015767Y003543D03*
X014035Y003543D03*
D14*
X001401Y002943D03*
X001401Y018343D03*
X020701Y018343D03*
X020701Y002943D03*
D15*
X019171Y003753D03*
X019171Y005053D03*
X019671Y005053D03*
X018671Y005053D03*
X017901Y005943D03*
X017101Y006943D03*
X015771Y005453D03*
X014301Y005343D03*
X017421Y004473D03*
X019701Y006543D03*
X020271Y007853D03*
X020101Y008343D03*
X018301Y008943D03*
X016701Y010943D03*
X016251Y010913D03*
X015401Y011043D03*
X014301Y009343D03*
X013111Y008313D03*
X012301Y009343D03*
X011411Y008213D03*
X010811Y008913D03*
X008911Y008413D03*
X008201Y007743D03*
X008001Y010243D03*
X006601Y010143D03*
X008201Y013193D03*
X008901Y013943D03*
X009301Y014443D03*
X011201Y013943D03*
X011601Y014443D03*
X013501Y014043D03*
X013901Y014443D03*
X014451Y014623D03*
X016011Y015463D03*
X014851Y016933D03*
X014251Y016933D03*
X012801Y017883D03*
X011351Y016943D03*
X010741Y016943D03*
X009301Y017883D03*
X007851Y016943D03*
X007251Y016943D03*
X005801Y017883D03*
X004351Y016943D03*
X003741Y016933D03*
X004701Y014443D03*
X005001Y013943D03*
X006601Y013943D03*
X007001Y014443D03*
X010501Y011073D03*
X013101Y011943D03*
X015831Y008793D03*
X018461Y011193D03*
X019201Y012143D03*
X019101Y012643D03*
X019101Y013143D03*
X019201Y013643D03*
X018351Y014823D03*
X017731Y016113D03*
X017751Y016933D03*
X018351Y016943D03*
X016301Y017883D03*
X020801Y012343D03*
X021071Y005793D03*
X021401Y005143D03*
X002501Y012243D03*
X002601Y013543D03*
X001501Y007443D03*
M02*
