G75*
G70*
%OFA0B0*%
%FSLAX24Y24*%
%IPPOS*%
%LPD*%
%AMOC8*
5,1,8,0,0,1.08239X$1,22.5*
%
%ADD10C,0.1890*%
%ADD11C,0.1654*%
%ADD12OC8,0.0740*%
%ADD13C,0.1500*%
%ADD14C,0.0160*%
%ADD15C,0.0360*%
%ADD16C,0.0120*%
%ADD17C,0.0240*%
%ADD18C,0.0300*%
%ADD19C,0.0200*%
D10*
X009601Y006997D03*
D11*
X011491Y005875D03*
X009601Y004537D03*
D12*
X020001Y013343D03*
X021001Y013343D03*
X021001Y014343D03*
X021001Y015343D03*
X020001Y015343D03*
X020001Y014343D03*
D13*
X020701Y018343D03*
X020701Y002943D03*
X001401Y002943D03*
X001401Y018343D03*
D14*
X000381Y019363D02*
X000381Y001923D01*
X001532Y001923D01*
X001532Y005207D01*
X001579Y005254D01*
X008023Y005254D01*
X008070Y005207D01*
X008070Y001923D01*
X021721Y001923D01*
X021721Y005027D01*
X021689Y004950D01*
X021593Y004855D01*
X021468Y004803D01*
X021333Y004803D01*
X021208Y004855D01*
X021113Y004950D01*
X021061Y005075D01*
X021061Y005210D01*
X021113Y005335D01*
X021181Y005404D01*
X021181Y005852D01*
X021110Y005923D01*
X020792Y005923D01*
X020610Y005923D01*
X020210Y006323D01*
X019962Y006323D01*
X019893Y006255D01*
X019768Y006203D01*
X019633Y006203D01*
X019508Y006255D01*
X019498Y006264D01*
X017985Y006276D01*
X018093Y006231D01*
X018189Y006135D01*
X018241Y006010D01*
X018241Y005875D01*
X018211Y005803D01*
X018211Y005151D01*
X019291Y004071D01*
X019363Y004041D01*
X019459Y003945D01*
X019511Y003820D01*
X019511Y003685D01*
X019459Y003560D01*
X019363Y003465D01*
X019238Y003413D01*
X019103Y003413D01*
X018978Y003465D01*
X018883Y003560D01*
X018853Y003633D01*
X017638Y004847D01*
X017591Y004961D01*
X017591Y005084D01*
X017591Y005803D01*
X017561Y005875D01*
X017561Y006010D01*
X017613Y006135D01*
X017708Y006231D01*
X017820Y006277D01*
X016700Y006286D01*
X016645Y006286D01*
X016644Y006286D01*
X016643Y006286D01*
X016590Y006309D01*
X016542Y006328D01*
X016541Y006329D01*
X016540Y006329D01*
X016500Y006371D01*
X016463Y006407D01*
X016463Y006408D01*
X016462Y006409D01*
X016441Y006462D01*
X016421Y006510D01*
X016421Y006511D01*
X016420Y006512D01*
X016421Y006568D01*
X016421Y010742D01*
X016413Y010750D01*
X016361Y010875D01*
X016361Y011010D01*
X016413Y011135D01*
X016508Y011231D01*
X016633Y011283D01*
X016768Y011283D01*
X016893Y011231D01*
X016989Y011135D01*
X017041Y011010D01*
X017041Y010875D01*
X016989Y010750D01*
X016981Y010742D01*
X016981Y007261D01*
X017033Y007283D01*
X017130Y007283D01*
X017281Y007434D01*
X017281Y008434D01*
X017410Y008563D01*
X018010Y009163D01*
X018040Y009163D01*
X018108Y009231D01*
X018233Y009283D01*
X018368Y009283D01*
X018493Y009231D01*
X018589Y009135D01*
X018641Y009010D01*
X018641Y008875D01*
X018589Y008750D01*
X018493Y008655D01*
X018368Y008603D01*
X018233Y008603D01*
X018119Y008650D01*
X017721Y008252D01*
X017721Y007434D01*
X017721Y007252D01*
X017441Y006972D01*
X017441Y006875D01*
X017426Y006840D01*
X019501Y006824D01*
X019508Y006831D01*
X019633Y006883D01*
X019768Y006883D01*
X019893Y006831D01*
X019962Y006763D01*
X020210Y006763D01*
X020392Y006763D01*
X020521Y006634D01*
X020521Y006699D01*
X020521Y008299D01*
X020563Y008401D01*
X020642Y008480D01*
X020745Y008523D01*
X020856Y008523D01*
X021721Y008523D01*
X021721Y009652D01*
X020441Y008372D01*
X020441Y008275D01*
X020389Y008150D01*
X020293Y008055D01*
X020168Y008003D01*
X020033Y008003D01*
X019908Y008055D01*
X019813Y008150D01*
X019761Y008275D01*
X019761Y008410D01*
X019813Y008535D01*
X019908Y008631D01*
X020033Y008683D01*
X020130Y008683D01*
X021481Y010034D01*
X021481Y013045D01*
X021229Y012793D01*
X021021Y012793D01*
X021021Y013323D01*
X020981Y013323D01*
X020981Y012793D01*
X020773Y012793D01*
X020487Y013079D01*
X020221Y012813D01*
X020221Y012234D01*
X020221Y012052D01*
X019621Y011452D01*
X019492Y011323D01*
X016492Y011323D01*
X016121Y010952D01*
X016121Y010852D01*
X015721Y010452D01*
X015592Y010323D01*
X014410Y010323D01*
X014281Y010452D01*
X014281Y010452D01*
X013130Y011603D01*
X013033Y011603D01*
X012908Y011655D01*
X012813Y011750D01*
X012761Y011875D01*
X012761Y012010D01*
X012813Y012135D01*
X012908Y012231D01*
X013033Y012283D01*
X013168Y012283D01*
X013293Y012231D01*
X013389Y012135D01*
X013441Y012010D01*
X013441Y011914D01*
X014592Y010763D01*
X015200Y010763D01*
X015113Y010850D01*
X015061Y010975D01*
X015061Y011072D01*
X013810Y012323D01*
X013310Y012323D01*
X013181Y012452D01*
X013181Y012452D01*
X012860Y012773D01*
X010860Y012773D01*
X010731Y012902D01*
X010510Y013123D01*
X008610Y013123D01*
X008541Y013192D01*
X008541Y013164D01*
X008621Y013084D01*
X008621Y012902D01*
X008621Y009952D01*
X008492Y009823D01*
X008421Y009752D01*
X008421Y008004D01*
X008489Y007935D01*
X008541Y007810D01*
X008541Y007675D01*
X008489Y007550D01*
X008393Y007455D01*
X008268Y007403D01*
X008133Y007403D01*
X008008Y007455D01*
X007913Y007550D01*
X007861Y007675D01*
X007861Y007810D01*
X007913Y007935D01*
X007981Y008004D01*
X007981Y009752D01*
X007981Y009903D01*
X007933Y009903D01*
X007808Y009955D01*
X007713Y010050D01*
X007661Y010175D01*
X007661Y010310D01*
X007713Y010435D01*
X007721Y010444D01*
X007721Y010627D01*
X006663Y011684D01*
X006621Y011787D01*
X006621Y011899D01*
X006621Y012527D01*
X005885Y013263D01*
X004856Y013263D01*
X004745Y013263D01*
X004642Y013305D01*
X004442Y013505D01*
X004363Y013584D01*
X004321Y013687D01*
X004321Y014287D01*
X004321Y014399D01*
X004361Y014495D01*
X004361Y014510D01*
X004413Y014635D01*
X004508Y014731D01*
X004633Y014783D01*
X004768Y014783D01*
X004893Y014731D01*
X004902Y014723D01*
X006800Y014723D01*
X006808Y014731D01*
X006933Y014783D01*
X007068Y014783D01*
X007193Y014731D01*
X007202Y014723D01*
X009100Y014723D01*
X009108Y014731D01*
X009233Y014783D01*
X009368Y014783D01*
X009493Y014731D01*
X009502Y014723D01*
X011400Y014723D01*
X011408Y014731D01*
X011533Y014783D01*
X011668Y014783D01*
X011793Y014731D01*
X011802Y014723D01*
X013700Y014723D01*
X013708Y014731D01*
X013833Y014783D01*
X013968Y014783D01*
X014093Y014731D01*
X014189Y014635D01*
X014241Y014510D01*
X014241Y014375D01*
X014194Y014263D01*
X018710Y014263D01*
X018892Y014263D01*
X019172Y013983D01*
X019268Y013983D01*
X019393Y013931D01*
X019489Y013835D01*
X019541Y013710D01*
X019541Y013632D01*
X019751Y013843D01*
X019471Y014123D01*
X019471Y014562D01*
X019751Y014843D01*
X019471Y015123D01*
X019471Y015302D01*
X019412Y015243D01*
X019230Y015243D01*
X016272Y015243D01*
X016203Y015175D01*
X016078Y015123D01*
X015943Y015123D01*
X015818Y015175D01*
X015723Y015270D01*
X015671Y015395D01*
X015671Y015530D01*
X015723Y015655D01*
X015818Y015751D01*
X015943Y015803D01*
X016078Y015803D01*
X016203Y015751D01*
X016272Y015683D01*
X019230Y015683D01*
X019681Y016134D01*
X019810Y016263D01*
X021210Y016263D01*
X021392Y016263D01*
X021721Y015934D01*
X021721Y019363D01*
X000381Y019363D01*
X000381Y019241D02*
X021721Y019241D01*
X021721Y019083D02*
X000381Y019083D01*
X000381Y018924D02*
X021721Y018924D01*
X021721Y018766D02*
X000381Y018766D01*
X000381Y018607D02*
X021721Y018607D01*
X021721Y018448D02*
X000381Y018448D01*
X000381Y018290D02*
X021721Y018290D01*
X021721Y018131D02*
X000381Y018131D01*
X000381Y017973D02*
X021721Y017973D01*
X021721Y017814D02*
X000381Y017814D01*
X000381Y017656D02*
X021721Y017656D01*
X021721Y017497D02*
X000381Y017497D01*
X000381Y017339D02*
X021721Y017339D01*
X021721Y017180D02*
X000381Y017180D01*
X000381Y017022D02*
X021721Y017022D01*
X021721Y016863D02*
X000381Y016863D01*
X000381Y016704D02*
X021721Y016704D01*
X021721Y016546D02*
X000381Y016546D01*
X000381Y016387D02*
X021721Y016387D01*
X021721Y016229D02*
X021426Y016229D01*
X021584Y016070D02*
X021721Y016070D01*
X019776Y016229D02*
X000381Y016229D01*
X000381Y016070D02*
X019617Y016070D01*
X019459Y015912D02*
X000381Y015912D01*
X000381Y015753D02*
X015823Y015753D01*
X015697Y015595D02*
X000381Y015595D01*
X000381Y015436D02*
X015671Y015436D01*
X015719Y015278D02*
X000381Y015278D01*
X000381Y015119D02*
X019475Y015119D01*
X019471Y015278D02*
X019447Y015278D01*
X019634Y014960D02*
X000381Y014960D01*
X000381Y014802D02*
X019710Y014802D01*
X019552Y014643D02*
X014181Y014643D01*
X014241Y014485D02*
X019471Y014485D01*
X019471Y014326D02*
X014220Y014326D01*
X012892Y012741D02*
X008621Y012741D01*
X008621Y012899D02*
X010733Y012899D01*
X010575Y013058D02*
X008621Y013058D01*
X008621Y012582D02*
X013050Y012582D01*
X013209Y012424D02*
X008621Y012424D01*
X008621Y012265D02*
X012991Y012265D01*
X013211Y012265D02*
X013867Y012265D01*
X014026Y012107D02*
X013401Y012107D01*
X013441Y011948D02*
X014184Y011948D01*
X014343Y011790D02*
X013565Y011790D01*
X013724Y011631D02*
X014501Y011631D01*
X014660Y011473D02*
X013882Y011473D01*
X014041Y011314D02*
X014819Y011314D01*
X014977Y011155D02*
X014199Y011155D01*
X014358Y010997D02*
X015061Y010997D01*
X015124Y010838D02*
X014516Y010838D01*
X014211Y010521D02*
X008621Y010521D01*
X008621Y010363D02*
X014370Y010363D01*
X014053Y010680D02*
X008621Y010680D01*
X008621Y010838D02*
X013894Y010838D01*
X013736Y010997D02*
X008621Y010997D01*
X008621Y011155D02*
X013577Y011155D01*
X013419Y011314D02*
X008621Y011314D01*
X008621Y011473D02*
X013260Y011473D01*
X012965Y011631D02*
X008621Y011631D01*
X008621Y011790D02*
X012796Y011790D01*
X012761Y011948D02*
X008621Y011948D01*
X008621Y012107D02*
X012801Y012107D01*
X012368Y009683D02*
X012233Y009683D01*
X012108Y009631D01*
X012013Y009535D01*
X011961Y009410D01*
X011961Y009275D01*
X012013Y009150D01*
X012061Y009102D01*
X012061Y008542D01*
X010701Y007183D01*
X010695Y007183D01*
X010630Y007424D01*
X010485Y007676D01*
X010279Y007881D01*
X010027Y008027D01*
X009746Y008102D01*
X009455Y008102D01*
X009174Y008027D01*
X008922Y007881D01*
X008717Y007676D01*
X008571Y007424D01*
X008496Y007143D01*
X008496Y006852D01*
X008571Y006571D01*
X008717Y006319D01*
X008922Y006113D01*
X009174Y005968D01*
X009455Y005892D01*
X009746Y005892D01*
X010027Y005968D01*
X010279Y006113D01*
X010485Y006319D01*
X010630Y006571D01*
X010666Y006703D01*
X010849Y006703D01*
X010937Y006739D01*
X011004Y006807D01*
X012504Y008307D01*
X012541Y008395D01*
X012541Y008491D01*
X012541Y009102D01*
X012589Y009150D01*
X012641Y009275D01*
X012641Y009410D01*
X012589Y009535D01*
X012493Y009631D01*
X012368Y009683D01*
X012554Y009570D02*
X014047Y009570D01*
X014013Y009535D02*
X013961Y009410D01*
X013961Y009275D01*
X014013Y009150D01*
X014041Y009122D01*
X014041Y005564D01*
X014013Y005535D01*
X013961Y005410D01*
X013961Y005275D01*
X014013Y005150D01*
X014108Y005055D01*
X014233Y005003D01*
X014368Y005003D01*
X014493Y005055D01*
X014589Y005150D01*
X014641Y005275D01*
X014641Y005410D01*
X014589Y005535D01*
X014561Y005564D01*
X014561Y009122D01*
X014589Y009150D01*
X014641Y009275D01*
X014641Y009410D01*
X014589Y009535D01*
X014493Y009631D01*
X014368Y009683D01*
X014233Y009683D01*
X014108Y009631D01*
X014013Y009535D01*
X013961Y009411D02*
X012640Y009411D01*
X012631Y009253D02*
X013970Y009253D01*
X014041Y009094D02*
X012541Y009094D01*
X012541Y008936D02*
X014041Y008936D01*
X014041Y008777D02*
X012541Y008777D01*
X012541Y008619D02*
X014041Y008619D01*
X014041Y008460D02*
X012541Y008460D01*
X012499Y008302D02*
X014041Y008302D01*
X014041Y008143D02*
X012340Y008143D01*
X012182Y007985D02*
X014041Y007985D01*
X014041Y007826D02*
X012023Y007826D01*
X011865Y007667D02*
X014041Y007667D01*
X014041Y007509D02*
X011706Y007509D01*
X011548Y007350D02*
X014041Y007350D01*
X014041Y007192D02*
X011389Y007192D01*
X011231Y007033D02*
X014041Y007033D01*
X014041Y006875D02*
X011072Y006875D01*
X010943Y006716D02*
X010881Y006716D01*
X010932Y006712D02*
X010654Y006434D01*
X010504Y006071D01*
X010504Y005679D01*
X010654Y005316D01*
X010932Y005039D01*
X011294Y004888D01*
X011687Y004888D01*
X012049Y005039D01*
X012327Y005316D01*
X012477Y005679D01*
X012477Y006071D01*
X012327Y006434D01*
X012049Y006712D01*
X011687Y006862D01*
X011294Y006862D01*
X010932Y006712D01*
X010778Y006558D02*
X010623Y006558D01*
X010640Y006399D02*
X010531Y006399D01*
X010574Y006241D02*
X010407Y006241D01*
X010508Y006082D02*
X010226Y006082D01*
X010504Y005924D02*
X009863Y005924D01*
X009770Y005531D02*
X009681Y005541D01*
X009681Y004617D01*
X009521Y004617D01*
X009521Y005541D01*
X009432Y005531D01*
X009322Y005505D01*
X009215Y005468D01*
X009113Y005419D01*
X009017Y005359D01*
X008929Y005288D01*
X008849Y005208D01*
X008778Y005120D01*
X008718Y005024D01*
X008669Y004922D01*
X008632Y004816D01*
X008607Y004705D01*
X008597Y004616D01*
X009521Y004616D01*
X009521Y004457D01*
X008597Y004457D01*
X008607Y004368D01*
X008632Y004257D01*
X008669Y004151D01*
X008718Y004049D01*
X008778Y003953D01*
X008849Y003865D01*
X008929Y003785D01*
X009017Y003714D01*
X009113Y003654D01*
X009215Y003605D01*
X009322Y003568D01*
X009432Y003542D01*
X009521Y003532D01*
X009521Y004456D01*
X009681Y004456D01*
X009681Y003532D01*
X009770Y003542D01*
X009880Y003568D01*
X009987Y003605D01*
X010089Y003654D01*
X010184Y003714D01*
X010273Y003785D01*
X010353Y003865D01*
X010423Y003953D01*
X010483Y004049D01*
X010532Y004151D01*
X010570Y004257D01*
X010595Y004368D01*
X010605Y004457D01*
X009681Y004457D01*
X009681Y004616D01*
X010605Y004616D01*
X010595Y004705D01*
X010570Y004816D01*
X010532Y004922D01*
X010483Y005024D01*
X010423Y005120D01*
X010353Y005208D01*
X010273Y005288D01*
X010184Y005359D01*
X010089Y005419D01*
X009987Y005468D01*
X009880Y005505D01*
X009770Y005531D01*
X009681Y005448D02*
X009521Y005448D01*
X009521Y005289D02*
X009681Y005289D01*
X009681Y005131D02*
X009521Y005131D01*
X009521Y004972D02*
X009681Y004972D01*
X009681Y004814D02*
X009521Y004814D01*
X009521Y004655D02*
X009681Y004655D01*
X009681Y004497D02*
X017989Y004497D01*
X018147Y004338D02*
X010588Y004338D01*
X010542Y004180D02*
X018306Y004180D01*
X018464Y004021D02*
X010466Y004021D01*
X010350Y003862D02*
X013708Y003862D01*
X013647Y003802D02*
X013776Y003930D01*
X013944Y004000D01*
X014126Y004000D01*
X014294Y003930D01*
X014422Y003802D01*
X014492Y003634D01*
X014492Y003452D01*
X014422Y003284D01*
X014294Y003155D01*
X014126Y003086D01*
X013944Y003086D01*
X013776Y003155D01*
X013647Y003284D01*
X013577Y003452D01*
X013577Y003634D01*
X013647Y003802D01*
X013607Y003704D02*
X010168Y003704D01*
X009782Y003545D02*
X013577Y003545D01*
X013604Y003387D02*
X008070Y003387D01*
X008070Y003545D02*
X009419Y003545D01*
X009521Y003545D02*
X009681Y003545D01*
X009681Y003704D02*
X009521Y003704D01*
X009521Y003862D02*
X009681Y003862D01*
X009681Y004021D02*
X009521Y004021D01*
X009521Y004180D02*
X009681Y004180D01*
X009681Y004338D02*
X009521Y004338D01*
X009521Y004497D02*
X008070Y004497D01*
X008070Y004655D02*
X008601Y004655D01*
X008631Y004814D02*
X008070Y004814D01*
X008070Y004972D02*
X008693Y004972D01*
X008787Y005131D02*
X008070Y005131D01*
X008070Y004338D02*
X008613Y004338D01*
X008659Y004180D02*
X008070Y004180D01*
X008070Y004021D02*
X008736Y004021D01*
X008851Y003862D02*
X008070Y003862D01*
X008070Y003704D02*
X009034Y003704D01*
X008070Y003228D02*
X013703Y003228D01*
X014361Y003862D02*
X015440Y003862D01*
X015379Y003802D02*
X015310Y003634D01*
X015310Y003452D01*
X015379Y003284D01*
X015508Y003155D01*
X015676Y003086D01*
X015858Y003086D01*
X016026Y003155D01*
X016154Y003284D01*
X016224Y003452D01*
X016224Y003634D01*
X016154Y003802D01*
X016026Y003930D01*
X015858Y004000D01*
X015676Y004000D01*
X015508Y003930D01*
X015379Y003802D01*
X015339Y003704D02*
X014463Y003704D01*
X014492Y003545D02*
X015310Y003545D01*
X015337Y003387D02*
X014465Y003387D01*
X014367Y003228D02*
X015435Y003228D01*
X016099Y003228D02*
X021721Y003228D01*
X021721Y003070D02*
X008070Y003070D01*
X008070Y002911D02*
X021721Y002911D01*
X021721Y002753D02*
X008070Y002753D01*
X008070Y002594D02*
X021721Y002594D01*
X021721Y002436D02*
X008070Y002436D01*
X008070Y002277D02*
X021721Y002277D01*
X021721Y002118D02*
X008070Y002118D01*
X008070Y001960D02*
X021721Y001960D01*
X021721Y003387D02*
X016197Y003387D01*
X016224Y003545D02*
X018897Y003545D01*
X018781Y003704D02*
X016195Y003704D01*
X016094Y003862D02*
X018623Y003862D01*
X019024Y004338D02*
X021721Y004338D01*
X021721Y004180D02*
X019182Y004180D01*
X019383Y004021D02*
X021721Y004021D01*
X021721Y003862D02*
X019493Y003862D01*
X019511Y003704D02*
X021721Y003704D01*
X021721Y003545D02*
X019444Y003545D01*
X018865Y004497D02*
X021721Y004497D01*
X021721Y004655D02*
X018707Y004655D01*
X018548Y004814D02*
X021307Y004814D01*
X021495Y004814D02*
X021721Y004814D01*
X021721Y004972D02*
X021698Y004972D01*
X021103Y004972D02*
X018390Y004972D01*
X018231Y005131D02*
X021061Y005131D01*
X021094Y005289D02*
X018211Y005289D01*
X018211Y005448D02*
X021181Y005448D01*
X021181Y005606D02*
X018211Y005606D01*
X018211Y005765D02*
X021181Y005765D01*
X020609Y005924D02*
X018241Y005924D01*
X018211Y006082D02*
X020450Y006082D01*
X020292Y006241D02*
X019859Y006241D01*
X019542Y006241D02*
X018070Y006241D01*
X017731Y006241D02*
X014561Y006241D01*
X014561Y006399D02*
X016471Y006399D01*
X016421Y006558D02*
X014561Y006558D01*
X014561Y006716D02*
X016421Y006716D01*
X016421Y006875D02*
X014561Y006875D01*
X014561Y007033D02*
X016421Y007033D01*
X016421Y007192D02*
X014561Y007192D01*
X014561Y007350D02*
X016421Y007350D01*
X016421Y007509D02*
X014561Y007509D01*
X014561Y007667D02*
X016421Y007667D01*
X016421Y007826D02*
X014561Y007826D01*
X014561Y007985D02*
X016421Y007985D01*
X016421Y008143D02*
X014561Y008143D01*
X014561Y008302D02*
X016421Y008302D01*
X016421Y008460D02*
X014561Y008460D01*
X014561Y008619D02*
X016421Y008619D01*
X016421Y008777D02*
X014561Y008777D01*
X014561Y008936D02*
X016421Y008936D01*
X016421Y009094D02*
X014561Y009094D01*
X014631Y009253D02*
X016421Y009253D01*
X016421Y009411D02*
X014640Y009411D01*
X014554Y009570D02*
X016421Y009570D01*
X016421Y009729D02*
X008421Y009729D01*
X008421Y009570D02*
X012047Y009570D01*
X011961Y009411D02*
X008421Y009411D01*
X008421Y009253D02*
X011970Y009253D01*
X012061Y009094D02*
X008421Y009094D01*
X008421Y008936D02*
X012061Y008936D01*
X012061Y008777D02*
X008421Y008777D01*
X008421Y008619D02*
X012061Y008619D01*
X011979Y008460D02*
X008421Y008460D01*
X008421Y008302D02*
X011820Y008302D01*
X011662Y008143D02*
X008421Y008143D01*
X008440Y007985D02*
X009101Y007985D01*
X008867Y007826D02*
X008534Y007826D01*
X008538Y007667D02*
X008712Y007667D01*
X008620Y007509D02*
X008448Y007509D01*
X008552Y007350D02*
X001830Y007350D01*
X001841Y007375D02*
X001789Y007250D01*
X001693Y007155D01*
X001568Y007103D01*
X001433Y007103D01*
X001308Y007155D01*
X001213Y007250D01*
X001161Y007375D01*
X001161Y007510D01*
X001213Y007635D01*
X001281Y007704D01*
X001281Y012130D01*
X001271Y012207D01*
X001281Y012219D01*
X001281Y012234D01*
X001336Y012289D01*
X002263Y013469D01*
X002261Y013475D01*
X002261Y013610D01*
X002313Y013735D01*
X002408Y013831D01*
X002533Y013883D01*
X002668Y013883D01*
X002793Y013831D01*
X002889Y013735D01*
X002941Y013610D01*
X002941Y013475D01*
X002889Y013350D01*
X002793Y013255D01*
X002668Y013203D01*
X002613Y013203D01*
X001721Y012067D01*
X001721Y007704D01*
X001789Y007635D01*
X001841Y007510D01*
X001841Y007375D01*
X001841Y007509D02*
X007954Y007509D01*
X007864Y007667D02*
X001757Y007667D01*
X001721Y007826D02*
X007867Y007826D01*
X007962Y007985D02*
X001721Y007985D01*
X001721Y008143D02*
X007981Y008143D01*
X007981Y008302D02*
X001721Y008302D01*
X001721Y008460D02*
X007981Y008460D01*
X007981Y008619D02*
X001721Y008619D01*
X001721Y008777D02*
X007981Y008777D01*
X007981Y008936D02*
X001721Y008936D01*
X001721Y009094D02*
X007981Y009094D01*
X007981Y009253D02*
X001721Y009253D01*
X001721Y009411D02*
X007981Y009411D01*
X007981Y009570D02*
X001721Y009570D01*
X001721Y009729D02*
X007981Y009729D01*
X007981Y009887D02*
X001721Y009887D01*
X001721Y010046D02*
X007717Y010046D01*
X007661Y010204D02*
X001721Y010204D01*
X001721Y010363D02*
X007682Y010363D01*
X007721Y010521D02*
X001721Y010521D01*
X001721Y010680D02*
X007668Y010680D01*
X007509Y010838D02*
X001721Y010838D01*
X001721Y010997D02*
X007351Y010997D01*
X007192Y011155D02*
X001721Y011155D01*
X001721Y011314D02*
X007034Y011314D01*
X006875Y011473D02*
X001721Y011473D01*
X001721Y011631D02*
X006717Y011631D01*
X006621Y011790D02*
X001721Y011790D01*
X001721Y011948D02*
X006621Y011948D01*
X006621Y012107D02*
X001752Y012107D01*
X001877Y012265D02*
X006621Y012265D01*
X006621Y012424D02*
X002001Y012424D01*
X002126Y012582D02*
X006565Y012582D01*
X006407Y012741D02*
X002250Y012741D01*
X002375Y012899D02*
X006248Y012899D01*
X006090Y013058D02*
X002500Y013058D01*
X002701Y013216D02*
X005931Y013216D01*
X004573Y013375D02*
X002899Y013375D01*
X002941Y013534D02*
X004414Y013534D01*
X004321Y013692D02*
X002907Y013692D01*
X002746Y013851D02*
X004321Y013851D01*
X004321Y014009D02*
X000381Y014009D01*
X000381Y013851D02*
X002456Y013851D01*
X002295Y013692D02*
X000381Y013692D01*
X000381Y013534D02*
X002261Y013534D01*
X002189Y013375D02*
X000381Y013375D01*
X000381Y013216D02*
X002065Y013216D01*
X001940Y013058D02*
X000381Y013058D01*
X000381Y012899D02*
X001816Y012899D01*
X001691Y012741D02*
X000381Y012741D01*
X000381Y012582D02*
X001566Y012582D01*
X001442Y012424D02*
X000381Y012424D01*
X000381Y012265D02*
X001312Y012265D01*
X001281Y012107D02*
X000381Y012107D01*
X000381Y011948D02*
X001281Y011948D01*
X001281Y011790D02*
X000381Y011790D01*
X000381Y011631D02*
X001281Y011631D01*
X001281Y011473D02*
X000381Y011473D01*
X000381Y011314D02*
X001281Y011314D01*
X001281Y011155D02*
X000381Y011155D01*
X000381Y010997D02*
X001281Y010997D01*
X001281Y010838D02*
X000381Y010838D01*
X000381Y010680D02*
X001281Y010680D01*
X001281Y010521D02*
X000381Y010521D01*
X000381Y010363D02*
X001281Y010363D01*
X001281Y010204D02*
X000381Y010204D01*
X000381Y010046D02*
X001281Y010046D01*
X001281Y009887D02*
X000381Y009887D01*
X000381Y009729D02*
X001281Y009729D01*
X001281Y009570D02*
X000381Y009570D01*
X000381Y009411D02*
X001281Y009411D01*
X001281Y009253D02*
X000381Y009253D01*
X000381Y009094D02*
X001281Y009094D01*
X001281Y008936D02*
X000381Y008936D01*
X000381Y008777D02*
X001281Y008777D01*
X001281Y008619D02*
X000381Y008619D01*
X000381Y008460D02*
X001281Y008460D01*
X001281Y008302D02*
X000381Y008302D01*
X000381Y008143D02*
X001281Y008143D01*
X001281Y007985D02*
X000381Y007985D01*
X000381Y007826D02*
X001281Y007826D01*
X001245Y007667D02*
X000381Y007667D01*
X000381Y007509D02*
X001161Y007509D01*
X001171Y007350D02*
X000381Y007350D01*
X000381Y007192D02*
X001271Y007192D01*
X001731Y007192D02*
X008509Y007192D01*
X008496Y007033D02*
X000381Y007033D01*
X000381Y006875D02*
X008496Y006875D01*
X008532Y006716D02*
X000381Y006716D01*
X000381Y006558D02*
X008579Y006558D01*
X008670Y006399D02*
X000381Y006399D01*
X000381Y006241D02*
X008795Y006241D01*
X008976Y006082D02*
X000381Y006082D01*
X000381Y005924D02*
X009339Y005924D01*
X009173Y005448D02*
X000381Y005448D01*
X000381Y005606D02*
X010534Y005606D01*
X010504Y005765D02*
X000381Y005765D01*
X000381Y005289D02*
X008930Y005289D01*
X010029Y005448D02*
X010599Y005448D01*
X010681Y005289D02*
X010271Y005289D01*
X010415Y005131D02*
X010839Y005131D01*
X011092Y004972D02*
X010508Y004972D01*
X010570Y004814D02*
X017671Y004814D01*
X017591Y004972D02*
X011889Y004972D01*
X012142Y005131D02*
X014032Y005131D01*
X013961Y005289D02*
X012300Y005289D01*
X012382Y005448D02*
X013976Y005448D01*
X014041Y005606D02*
X012447Y005606D01*
X012477Y005765D02*
X014041Y005765D01*
X014041Y005924D02*
X012477Y005924D01*
X012473Y006082D02*
X014041Y006082D01*
X014041Y006241D02*
X012407Y006241D01*
X012342Y006399D02*
X014041Y006399D01*
X014041Y006558D02*
X012203Y006558D01*
X012038Y006716D02*
X014041Y006716D01*
X014561Y006082D02*
X017590Y006082D01*
X017561Y005924D02*
X014561Y005924D01*
X014561Y005765D02*
X017591Y005765D01*
X017591Y005606D02*
X014561Y005606D01*
X014625Y005448D02*
X017591Y005448D01*
X017591Y005289D02*
X014641Y005289D01*
X014570Y005131D02*
X017591Y005131D01*
X017830Y004655D02*
X010601Y004655D01*
X010801Y006943D02*
X009655Y006943D01*
X009601Y006997D01*
X010581Y007509D02*
X011027Y007509D01*
X010869Y007350D02*
X010650Y007350D01*
X010692Y007192D02*
X010710Y007192D01*
X010801Y006943D02*
X012301Y008443D01*
X012301Y009343D01*
X011503Y007985D02*
X010100Y007985D01*
X010334Y007826D02*
X011345Y007826D01*
X011186Y007667D02*
X010490Y007667D01*
X008556Y009887D02*
X016421Y009887D01*
X016421Y010046D02*
X008621Y010046D01*
X008621Y010204D02*
X016421Y010204D01*
X016421Y010363D02*
X015632Y010363D01*
X015790Y010521D02*
X016421Y010521D01*
X016421Y010680D02*
X015949Y010680D01*
X016107Y010838D02*
X016376Y010838D01*
X016361Y010997D02*
X016166Y010997D01*
X016324Y011155D02*
X016433Y011155D01*
X016483Y011314D02*
X021481Y011314D01*
X021481Y011473D02*
X019642Y011473D01*
X019800Y011631D02*
X021481Y011631D01*
X021481Y011790D02*
X019959Y011790D01*
X020117Y011948D02*
X021481Y011948D01*
X021481Y012107D02*
X020221Y012107D01*
X020221Y012265D02*
X021481Y012265D01*
X021481Y012424D02*
X020221Y012424D01*
X020221Y012582D02*
X021481Y012582D01*
X021481Y012741D02*
X020221Y012741D01*
X020307Y012899D02*
X020666Y012899D01*
X020508Y013058D02*
X020465Y013058D01*
X020981Y013058D02*
X021021Y013058D01*
X021021Y013216D02*
X020981Y013216D01*
X020981Y012899D02*
X021021Y012899D01*
X021335Y012899D02*
X021481Y012899D01*
X019743Y013851D02*
X019474Y013851D01*
X019541Y013692D02*
X019601Y013692D01*
X019585Y014009D02*
X019145Y014009D01*
X018987Y014168D02*
X019471Y014168D01*
X019300Y015753D02*
X016198Y015753D01*
X016969Y011155D02*
X021481Y011155D01*
X021481Y010997D02*
X017041Y010997D01*
X017025Y010838D02*
X021481Y010838D01*
X021481Y010680D02*
X016981Y010680D01*
X016981Y010521D02*
X021481Y010521D01*
X021481Y010363D02*
X016981Y010363D01*
X016981Y010204D02*
X021481Y010204D01*
X021481Y010046D02*
X016981Y010046D01*
X016981Y009887D02*
X021334Y009887D01*
X021175Y009729D02*
X016981Y009729D01*
X016981Y009570D02*
X021017Y009570D01*
X020858Y009411D02*
X016981Y009411D01*
X016981Y009253D02*
X018161Y009253D01*
X017941Y009094D02*
X016981Y009094D01*
X016981Y008936D02*
X017783Y008936D01*
X017624Y008777D02*
X016981Y008777D01*
X016981Y008619D02*
X017466Y008619D01*
X017307Y008460D02*
X016981Y008460D01*
X016981Y008302D02*
X017281Y008302D01*
X017281Y008143D02*
X016981Y008143D01*
X016981Y007985D02*
X017281Y007985D01*
X017281Y007826D02*
X016981Y007826D01*
X016981Y007667D02*
X017281Y007667D01*
X017281Y007509D02*
X016981Y007509D01*
X016981Y007350D02*
X017197Y007350D01*
X017502Y007033D02*
X020521Y007033D01*
X020521Y006875D02*
X019788Y006875D01*
X019614Y006875D02*
X017441Y006875D01*
X017661Y007192D02*
X020521Y007192D01*
X020521Y007350D02*
X017721Y007350D01*
X017721Y007509D02*
X020521Y007509D01*
X020521Y007667D02*
X017721Y007667D01*
X017721Y007826D02*
X020521Y007826D01*
X020521Y007985D02*
X017721Y007985D01*
X017721Y008143D02*
X019820Y008143D01*
X019761Y008302D02*
X017771Y008302D01*
X017929Y008460D02*
X019781Y008460D01*
X019896Y008619D02*
X018407Y008619D01*
X018195Y008619D02*
X018088Y008619D01*
X018600Y008777D02*
X020224Y008777D01*
X020383Y008936D02*
X018641Y008936D01*
X018606Y009094D02*
X020541Y009094D01*
X020700Y009253D02*
X018441Y009253D01*
X020441Y008302D02*
X020522Y008302D01*
X020529Y008460D02*
X020622Y008460D01*
X020688Y008619D02*
X021721Y008619D01*
X021721Y008777D02*
X020846Y008777D01*
X021005Y008936D02*
X021721Y008936D01*
X021721Y009094D02*
X021163Y009094D01*
X021322Y009253D02*
X021721Y009253D01*
X021721Y009411D02*
X021480Y009411D01*
X021639Y009570D02*
X021721Y009570D01*
X020521Y008143D02*
X020382Y008143D01*
X020438Y006716D02*
X020521Y006716D01*
X004421Y014643D02*
X000381Y014643D01*
X000381Y014485D02*
X004357Y014485D01*
X004321Y014326D02*
X000381Y014326D01*
X000381Y014168D02*
X004321Y014168D01*
X001532Y005131D02*
X000381Y005131D01*
X000381Y004972D02*
X001532Y004972D01*
X001532Y004814D02*
X000381Y004814D01*
X000381Y004655D02*
X001532Y004655D01*
X001532Y004497D02*
X000381Y004497D01*
X000381Y004338D02*
X001532Y004338D01*
X001532Y004180D02*
X000381Y004180D01*
X000381Y004021D02*
X001532Y004021D01*
X001532Y003862D02*
X000381Y003862D01*
X000381Y003704D02*
X001532Y003704D01*
X001532Y003545D02*
X000381Y003545D01*
X000381Y003387D02*
X001532Y003387D01*
X001532Y003228D02*
X000381Y003228D01*
X000381Y003070D02*
X001532Y003070D01*
X001532Y002911D02*
X000381Y002911D01*
X000381Y002753D02*
X001532Y002753D01*
X001532Y002594D02*
X000381Y002594D01*
X000381Y002436D02*
X001532Y002436D01*
X001532Y002277D02*
X000381Y002277D01*
X000381Y002118D02*
X001532Y002118D01*
X001532Y001960D02*
X000381Y001960D01*
D15*
X001501Y007443D03*
X006601Y010143D03*
X008001Y010243D03*
X008911Y008413D03*
X008201Y007743D03*
X010811Y008913D03*
X011411Y008213D03*
X012301Y009343D03*
X013111Y008313D03*
X014301Y009343D03*
X015831Y008793D03*
X017101Y006943D03*
X017901Y005943D03*
X018671Y005053D03*
X019171Y005053D03*
X019671Y005053D03*
X019171Y003753D03*
X017421Y004473D03*
X015771Y005453D03*
X014301Y005343D03*
X018301Y008943D03*
X020101Y008343D03*
X020271Y007853D03*
X019701Y006543D03*
X021071Y005793D03*
X021401Y005143D03*
X016701Y010943D03*
X016251Y010913D03*
X015401Y011043D03*
X013101Y011943D03*
X011201Y013943D03*
X011601Y014443D03*
X013501Y014043D03*
X013901Y014443D03*
X014451Y014623D03*
X016011Y015463D03*
X014851Y016933D03*
X014251Y016933D03*
X012801Y017883D03*
X011351Y016943D03*
X010741Y016943D03*
X009301Y017883D03*
X007851Y016943D03*
X007251Y016943D03*
X005801Y017883D03*
X004351Y016943D03*
X003741Y016933D03*
X004701Y014443D03*
X005001Y013943D03*
X006601Y013943D03*
X007001Y014443D03*
X008201Y013193D03*
X008901Y013943D03*
X009301Y014443D03*
X010501Y011073D03*
X017731Y016113D03*
X017751Y016933D03*
X018351Y016943D03*
X018351Y014823D03*
X019201Y013643D03*
X019101Y013143D03*
X019101Y012643D03*
X019201Y012143D03*
X018461Y011193D03*
X020801Y012343D03*
X016301Y017883D03*
X002601Y013543D03*
X002501Y012243D03*
D16*
X001501Y012143D02*
X002601Y013543D01*
X001501Y012143D02*
X001501Y007443D01*
X008201Y007743D02*
X008201Y009843D01*
X008401Y010043D01*
X008401Y012993D01*
X008201Y013193D01*
X008501Y013543D02*
X008701Y013343D01*
X010601Y013343D01*
X010951Y012993D01*
X012951Y012993D01*
X013401Y012543D01*
X013901Y012543D01*
X015401Y011043D01*
X015901Y011043D02*
X015901Y010943D01*
X015501Y010543D01*
X014501Y010543D01*
X013101Y011943D01*
X013501Y012743D02*
X018301Y012743D01*
X019201Y012143D01*
X019101Y012643D02*
X018801Y012943D01*
X013601Y012943D01*
X013001Y013543D01*
X011101Y013543D01*
X010701Y013943D01*
X008901Y013943D01*
X008801Y013543D02*
X010751Y013543D01*
X011051Y013243D01*
X013001Y013243D01*
X013501Y012743D01*
X013251Y013693D02*
X018551Y013693D01*
X019101Y013143D01*
X019201Y013643D02*
X018801Y014043D01*
X013501Y014043D01*
X013251Y013693D02*
X013001Y013943D01*
X011201Y013943D01*
X008801Y013543D02*
X008401Y013943D01*
X006601Y013943D01*
X006501Y013543D02*
X008501Y013543D01*
X006501Y013543D02*
X006101Y013943D01*
X005001Y013943D01*
X015901Y011043D02*
X016401Y011543D01*
X019401Y011543D01*
X020001Y012143D01*
X020001Y013343D01*
X019321Y015463D02*
X019901Y016043D01*
X021301Y016043D01*
X021701Y015643D01*
X021701Y009943D01*
X020101Y008343D01*
X018301Y008943D02*
X018101Y008943D01*
X017501Y008343D01*
X017501Y007343D01*
X017101Y006943D01*
X019701Y006543D02*
X020301Y006543D01*
X020701Y006143D01*
X021201Y006143D01*
X021401Y005943D01*
X021401Y005143D01*
X019321Y015463D02*
X016011Y015463D01*
D17*
X013901Y014443D02*
X011601Y014443D01*
X009301Y014443D01*
X007001Y014443D01*
X004701Y014443D01*
X004601Y014343D01*
X004601Y013743D01*
X004801Y013543D01*
X006001Y013543D01*
X006901Y012643D01*
X006901Y011843D01*
X008001Y010743D01*
X008001Y010243D01*
X016701Y010943D02*
X016701Y006566D01*
X019701Y006543D01*
D18*
X017901Y005943D02*
X017901Y005023D01*
X019171Y003753D01*
D19*
X014301Y005343D02*
X014301Y009343D01*
M02*
