G75*
G70*
%OFA0B0*%
%FSLAX24Y24*%
%IPPOS*%
%LPD*%
%AMOC8*
5,1,8,0,0,1.08239X$1,22.5*
%
%ADD10R,0.0532X0.0532*%
%ADD11R,0.0532X0.0375*%
%ADD12C,0.1950*%
%ADD13C,0.1714*%
%ADD14R,0.0926X0.0611*%
%ADD15R,0.0414X0.0611*%
%ADD16R,0.0280X0.0560*%
%ADD17R,0.0560X0.0280*%
%ADD18OC8,0.0800*%
%ADD19R,0.2225X0.0847*%
%ADD20R,0.0375X0.0532*%
%ADD21R,0.0690X0.0375*%
%ADD22R,0.0375X0.0690*%
%ADD23R,0.0532X0.0277*%
%ADD24R,0.1871X0.0454*%
%ADD25R,0.1399X0.0690*%
%ADD26R,0.0177X0.0395*%
%ADD27R,0.1005X0.0710*%
%ADD28R,0.0336X0.0170*%
%ADD29R,0.0572X0.0572*%
%ADD30R,0.0310X0.0560*%
%ADD31R,0.0257X0.1044*%
%ADD32R,0.0847X0.1044*%
%ADD33C,0.0414*%
%ADD34R,0.0375X0.0414*%
%ADD35C,0.0454*%
%ADD36C,0.1560*%
%ADD37C,0.0420*%
D10*
X001101Y005529D03*
X001101Y006356D03*
X008601Y010229D03*
X008601Y011056D03*
X007851Y017479D03*
X007251Y017479D03*
X007251Y018306D03*
X007851Y018306D03*
X010751Y018306D03*
X011351Y018306D03*
X011351Y017479D03*
X010751Y017479D03*
X014251Y017479D03*
X014851Y017479D03*
X014851Y018306D03*
X014251Y018306D03*
X017751Y018306D03*
X018351Y018306D03*
X018351Y017479D03*
X017751Y017479D03*
X004351Y017479D03*
X003741Y017479D03*
X003741Y018306D03*
X004351Y018306D03*
D11*
X005201Y018247D03*
X005201Y017539D03*
X006401Y017539D03*
X006401Y018247D03*
X008701Y018247D03*
X008701Y017539D03*
X009901Y017539D03*
X009901Y018247D03*
X012201Y018197D03*
X012201Y017489D03*
X013401Y017489D03*
X013401Y018197D03*
X015701Y018197D03*
X015701Y017489D03*
X016901Y017489D03*
X016901Y018197D03*
X019201Y018197D03*
X019201Y017489D03*
X017201Y016177D03*
X017201Y015469D03*
X015001Y015797D03*
X015001Y015089D03*
X012401Y014989D03*
X012401Y015697D03*
X010101Y015697D03*
X010101Y014989D03*
X007801Y014989D03*
X007801Y015697D03*
X005501Y015697D03*
X005501Y014989D03*
X003201Y014989D03*
X003201Y015697D03*
X002901Y017539D03*
X002901Y018247D03*
X009231Y011087D03*
X009891Y011067D03*
X009891Y010359D03*
X009231Y010379D03*
X008831Y009587D03*
X008201Y009597D03*
X008201Y008889D03*
X008831Y008879D03*
X001101Y004697D03*
X001101Y003989D03*
X018171Y004007D03*
X018171Y003299D03*
X018171Y002757D03*
X018171Y002049D03*
X021401Y003929D03*
X021401Y004637D03*
X019691Y007059D03*
X019691Y007767D03*
D12*
X009601Y006997D03*
D13*
X011491Y005875D03*
X009601Y004537D03*
D14*
X011875Y010243D03*
X014375Y010243D03*
D15*
X013371Y010243D03*
X010871Y010243D03*
D16*
X015698Y011553D03*
X016013Y011553D03*
X016328Y011553D03*
X016643Y011553D03*
X016958Y011553D03*
X017273Y011553D03*
X017588Y011553D03*
X017903Y011553D03*
X017903Y014933D03*
X017588Y014933D03*
X017273Y014933D03*
X016958Y014933D03*
X016643Y014933D03*
X016328Y014933D03*
X016013Y014933D03*
X015698Y014933D03*
D17*
X015111Y014345D03*
X015111Y014030D03*
X015111Y013715D03*
X015111Y013400D03*
X015111Y013085D03*
X015111Y012770D03*
X015111Y012455D03*
X015111Y012140D03*
X018491Y012140D03*
X018491Y012455D03*
X018491Y012770D03*
X018491Y013085D03*
X018491Y013400D03*
X018491Y013715D03*
X018491Y014030D03*
X018491Y014345D03*
D18*
X020001Y014343D03*
X021001Y014343D03*
X021001Y015343D03*
X020001Y015343D03*
X020001Y013343D03*
X021001Y013343D03*
D19*
X020371Y010243D03*
X016631Y010243D03*
D20*
X015955Y009443D03*
X015246Y009443D03*
X017046Y008943D03*
X017755Y008943D03*
X018868Y008931D03*
X019576Y008931D03*
X020125Y008925D03*
X020834Y008925D03*
X021155Y011543D03*
X020446Y011543D03*
X020625Y005853D03*
X019916Y005853D03*
X020006Y004073D03*
X020715Y004073D03*
X019525Y003253D03*
X018816Y003253D03*
X018816Y002453D03*
X019525Y002453D03*
X017125Y005693D03*
X016416Y005693D03*
X012055Y011893D03*
X012055Y012493D03*
X011346Y012493D03*
X011346Y011893D03*
D21*
X007399Y010741D03*
X007399Y010269D03*
X007399Y009796D03*
X007399Y009324D03*
X007399Y008851D03*
X007399Y008379D03*
X007399Y007907D03*
X007399Y007434D03*
X007399Y006962D03*
X007399Y006489D03*
X007399Y006017D03*
X007399Y005544D03*
X002202Y005544D03*
X002202Y006017D03*
X002202Y006489D03*
X002202Y006962D03*
X002202Y007434D03*
X002202Y007907D03*
X002202Y008379D03*
X002202Y008851D03*
X002202Y009324D03*
X002202Y009796D03*
X002202Y010269D03*
X002202Y010741D03*
D22*
X003178Y011844D03*
X003580Y011844D03*
X004053Y011844D03*
X004525Y011844D03*
X005076Y011844D03*
X005549Y011844D03*
X006021Y011844D03*
X006424Y011844D03*
D23*
X009579Y009287D03*
X009579Y008913D03*
X009579Y008539D03*
X010603Y008539D03*
X010603Y009287D03*
D24*
X012754Y007767D03*
X012754Y006979D03*
D25*
X014801Y006034D03*
X014801Y008711D03*
D26*
X018777Y005634D03*
X018974Y005634D03*
X019171Y005634D03*
X019368Y005634D03*
X019564Y005634D03*
X019564Y004472D03*
X019368Y004472D03*
X019171Y004472D03*
X018974Y004472D03*
X018777Y004472D03*
D27*
X019171Y005053D03*
D28*
X018580Y005151D03*
X018580Y004954D03*
X019761Y004954D03*
X019761Y005151D03*
D29*
X018961Y006643D03*
X017780Y006643D03*
D30*
X014478Y011643D03*
X014124Y011643D03*
X013021Y014243D03*
X012701Y014243D03*
X012381Y014243D03*
X010721Y014243D03*
X010401Y014243D03*
X010081Y014243D03*
X008421Y014243D03*
X008101Y014243D03*
X007781Y014243D03*
X006121Y014243D03*
X005801Y014243D03*
X005481Y014243D03*
X003821Y014243D03*
X003501Y014243D03*
X003181Y014243D03*
D31*
X014271Y004527D03*
X014586Y004527D03*
X014901Y004527D03*
X015216Y004527D03*
X015531Y004527D03*
D32*
X016672Y004527D03*
X016672Y002362D03*
X013129Y002362D03*
X013129Y004527D03*
D33*
X014035Y003543D03*
X015767Y003543D03*
D34*
X013875Y014949D03*
X013127Y014949D03*
X013501Y015776D03*
X011575Y014949D03*
X010827Y014949D03*
X011201Y015776D03*
X009275Y014949D03*
X008527Y014949D03*
X008901Y015776D03*
X006975Y014949D03*
X006227Y014949D03*
X006601Y015776D03*
X004675Y014949D03*
X003927Y014949D03*
X004301Y015776D03*
D35*
X013701Y013443D03*
X014101Y013843D03*
D36*
X001401Y002943D03*
X001401Y018343D03*
X020701Y018343D03*
X020701Y002943D03*
D37*
X019171Y003753D03*
X019171Y005053D03*
X019671Y005053D03*
X018671Y005053D03*
X017901Y005943D03*
X017101Y006943D03*
X015771Y005453D03*
X014301Y005343D03*
X017421Y004473D03*
X019701Y006543D03*
X020271Y007853D03*
X020101Y008343D03*
X018301Y008943D03*
X016701Y010943D03*
X016251Y010913D03*
X015401Y011043D03*
X014301Y009343D03*
X013111Y008313D03*
X012301Y009343D03*
X011411Y008213D03*
X010811Y008913D03*
X008911Y008413D03*
X008201Y007743D03*
X008001Y010243D03*
X006601Y010143D03*
X008201Y013193D03*
X008901Y013943D03*
X009301Y014443D03*
X011201Y013943D03*
X011601Y014443D03*
X013501Y014043D03*
X013901Y014443D03*
X014451Y014623D03*
X016011Y015463D03*
X014851Y016933D03*
X014251Y016933D03*
X012801Y017883D03*
X011351Y016943D03*
X010741Y016943D03*
X009301Y017883D03*
X007851Y016943D03*
X007251Y016943D03*
X005801Y017883D03*
X004351Y016943D03*
X003741Y016933D03*
X004701Y014443D03*
X005001Y013943D03*
X006601Y013943D03*
X007001Y014443D03*
X010501Y011073D03*
X013101Y011943D03*
X015831Y008793D03*
X018461Y011193D03*
X019201Y012143D03*
X019101Y012643D03*
X019101Y013143D03*
X019201Y013643D03*
X018351Y014823D03*
X017731Y016113D03*
X017751Y016933D03*
X018351Y016943D03*
X016301Y017883D03*
X020801Y012343D03*
X021071Y005793D03*
X021401Y005143D03*
X002501Y012243D03*
X002601Y013543D03*
X001501Y007443D03*
M02*
